<?xml version="1.0" encoding="UTF-8"?> <svg xmlns="http://www.w3.org/2000/svg" viewBox="0 0 112.31 206.41"> <title>decore_arr_2</title> <path d="M94.36,17.71a25.42,25.42,0,0,0,.48,3.23C104,57.34,103,91.62,84.14,132c-20.91,44.8-58.86,62.2-59,62,7.47-7.63,16.9-21.53,18-25,3-9.46-8.27,7.44-26,23C4.68,202.93-1,202.89.14,205c1.36,2.58,9,.52,22,1,11.16.42,24.07,1,30-1,5.45-1.24-25.62-4.85-26-5,12.63-7.6,27.72-13.76,40.72-30.19,47.47-60,39.55-141.6,28.22-153.48A1.23,1.23,0,0,0,94.36,17.71ZM112.14,70c-.27-6.73-.46-14-2.39-13-1.56,4.07.72,16.59-1.07,30.29-1,7.89-2.6,10.91-3.49,14a.73.73,0,0,0,1.36.55C112.18,90.78,112.68,83.16,112.14,70ZM92,12.51c1-.29,1.2-.57,1-1.36C88.14-6,81.57.26,86.14,6.14,87.41,7.77,86.9,6.87,92,12.51Z" fill="#323235"></path> </svg> 