<?xml version="1.0" encoding="UTF-8"?> <!-- Generator: Adobe Illustrator 21.1.0, SVG Export Plug-In . SVG Version: 6.00 Build 0) --> <svg xmlns="http://www.w3.org/2000/svg" xmlns:xlink="http://www.w3.org/1999/xlink" id="Layer_1" x="0px" y="0px" viewBox="0 0 322.6 80" style="enable-background:new 0 0 322.6 80;" xml:space="preserve"> <style type="text/css"> .st0{fill:#D6D2CD;} .st1{fill:#333333;} </style> <g> <g id="Слой_2"> <path class="st0" d="M16.4,1.3c-6.3,16-6.8,28.4-6,36.9c0.6,6.8,2.1,12.5,0.4,20.6C8.8,68,3.9,74.7,0,79c26.6,0,53.3,0,79.9,0 c-4.7-3.1-10.3-8.1-12.5-15.5c-2.6-9.1,1.8-15.8,3.4-25.1c1.5-8.6,0.9-20.9-8.2-37.2C47.2,1.1,31.8,1.2,16.4,1.3z"></path> </g> <g id="Layer_1_1_"> <rect x="21.6" y="71.4" transform="matrix(0.8492 -0.5281 0.5281 0.8492 -35.8434 22.8081)" class="st1" width="0.8" height="5.5"></rect> <rect x="66.9" y="71.8" transform="matrix(0.4187 -0.9081 0.9081 0.4187 -29.1064 104.7454)" class="st1" width="0.8" height="6.6"></rect> <rect x="10.6" y="74.9" transform="matrix(0.9151 -0.4032 0.4032 0.9151 -29.2292 11.8258)" class="st1" width="5.8" height="0.8"></rect> <path class="st1" d="M57.6,0H30.7H0v79l17.8-7.7L22,79h0.9l-4.5-8.2l3.3-4.5c1.1,3.3,3,6.3,5.5,8.6c-0.2-0.1-0.3-0.3-0.4-0.5 c0.9,0.9,1.9,1.7,3,2.4c0,0,0,0,0,0l0,0c1.5,1,3.1,1.7,4.9,2.3c0,0,0,0,0,0c0.1,0,0.2,0,0.2,0.1c0.2,0.1,0.5,0.1,0.7,0.2 c0.1,0,0.2,0.1,0.3,0.1c0.2,0.1,0.5,0.1,0.7,0.1c0.1,0,0.2,0,0.3,0.1c0.2,0,0.5,0.1,0.7,0.1c0.1,0,0.2,0,0.3,0 c0.3,0,0.5,0.1,0.8,0.1c0,0,0.1,0,0.1,0c0.1,0,0.1,0,0.2,0c0.2,0,0.3,0,0.5,0c0.3,0,0.6,0,0.8,0c0,0,0,0,0,0l0,0l0,0 c0.3,0,0.6,0,0.9,0c0.1,0,0.2,0,0.2,0c0.2,0,0.3,0,0.5,0c0.1,0,0.2,0,0.2,0c0.1,0,0.3,0,0.4,0c0.2,0,0.4,0,0.6-0.1 c0.1,0,0.3,0,0.4-0.1c0.2,0,0.4-0.1,0.6-0.1c0.1,0,0.2,0,0.3-0.1c0.5-0.1,1.1-0.2,1.6-0.4c0.1,0,0.2-0.1,0.2-0.1 c0.5-0.2,0.9-0.3,1.4-0.5c0,0,0.1,0,0.1,0c0.3-0.1,0.7-0.3,1-0.4c0.1,0,0.1-0.1,0.2-0.1l0.9,1h1.1L50,77.6c3.6-2,6.6-5.1,8.4-8.8 l1.7,2.3l0.6-0.5l-2-2.6c0.1-0.2,0.2-0.5,0.3-0.7l2.6,3.5L57.1,79H58l4.3-7.7L79.9,79V0H57.6z M59.4,58.8 c-0.5-2.1-1.3-3.2-1.9-3.7c0.3-0.1,0.6-0.3,0.9-0.4c0,0,0,0,0,0l0,0c0.4-0.2,0.7-0.4,1.1-0.6V58.8z M52.7,74.7 c0.1-0.6,0.1-1.2,0-1.7l0,0c0.1-2.8,0-9.5-4.3-12.8c0.2,0,0.4-0.1,0.5-0.1c0.8,0.2,3.6,1,5.4,3.6c1.4,2.2,1.7,5,0.9,8.4 C54.5,73.1,53.6,73.9,52.7,74.7 M50.3,76.5c-0.2-3-1.4-4.5-3.5-7c-0.5-0.6-1.1-1.3-1.7-2.1c-3-3.9-2.3-7-2.3-7l-0.8-0.2 c0,0.1-0.8,3.5,2.4,7.7c0.6,0.8,1.2,1.5,1.7,2.1c2.1,2.5,3.3,4,3.3,7c-0.5,0.3-1.1,0.6-1.7,0.8c-9.3-4.6-7.3-17.7-6.9-19.8 c0.2,0,0.4,0,0.6,0c1,0.8,2,1.4,3,1.8c-0.1,0.6,0,2.2,2.7,4.7c2.8,2.6,5.5,5.1,4.7,11C51.3,75.8,50.8,76.2,50.3,76.5 M36.6,78.8 c-1.9-2-3.3-4.4-3.9-6.7l-0.8,0.2c0.5,1.9,1.4,3.8,2.8,5.6c-2.9-2.1-10-8.7-5.3-18.8c1.5,0.8,2.9,1.2,4.4,1.2c0.2,0,0.4,0,0.6,0 c-1.8,2.7-2.9,5.9-2.8,9l0.8,0c0-3.2,1.1-6.5,3.1-9.2c1.4-0.3,2.8-1,4.1-2.1c0.1,0,0.3,0,0.4,0c0,0,0,0,0,0.1 C33,69,37.8,76.9,39.7,79.2C38.6,79.1,37.6,79,36.6,78.8 M26.8,2.1c0.2-0.1,0.5-0.1,0.7-0.2c0.3-0.1,0.6-0.2,1-0.2 c-1.1,0.7-2,1.7-2.6,2.9c-1.9,3.7-0.5,8.3-0.2,9.4c-0.1,0.1-0.1,0.1-0.2,0.2c-0.4,0.5-0.7,1-0.8,1.5c-1.5-1.6-5.5-6.8-1.2-11.7 C24.3,3.2,25.4,2.6,26.8,2.1C26.8,2.1,26.8,2.1,26.8,2.1 M45.3,5c0.9-1.1,1.7-2.4,2.4-3.8h4c-0.7,2-3.8,9.4-15.4,11.7 c-0.5-0.1-1-0.1-1.5-0.2c-1.5-0.2-2.8-0.4-3.9-0.5c1.3-1.5,3.5-1.9,5.9-2.4c2-0.4,4.1-0.8,5.7-2L42,7.3c-1.4,1-3.4,1.4-5.3,1.8 c-1.5,0.3-3.1,0.6-4.4,1.3c0.9-1,2.4-2.2,4.9-3c4.6-1.5,6-5,6.3-6.1h3.4c-0.6,1.2-1.4,2.3-2.1,3.3L45.3,5z M54.8,1.3 c0.1,0.5,0.1,1.7-0.9,3.3L54.6,5c1-1.7,1.1-3,1-3.7H57C57,1.8,57.1,2.9,57,4.2c-0.4,0.9-2.6,5.5-10.1,8c2.9-1.8,6.1-5.2,5.7-10.9 c0,0,0,0,0-0.1C52.6,1.3,54.8,1.3,54.8,1.3z M63.6,26.2c-4.1-1-6.7-6.5-7-7.2c0-0.1,0-0.2,0-0.3c0-0.1,0-0.3,0-0.4 c0.7,1.1,1.5,2.1,2.5,2.9l0.5-0.6c-1.6-1.3-2.7-2.9-3.3-4.6c1.8,1.7,4.5,3.8,7.1,4C63.9,22.1,63.8,24.2,63.6,26.2 M61.1,41 c0.4,0.9,1.1,2.9-0.7,5.2l0.1-2.4C60.5,42.6,60.7,41.6,61.1,41 M44.7,55L44.7,55C44.6,54.9,44.6,55,44.7,55 c-2.1-0.9-3.5-2.8-3.5-4.9c0-1.4,0.5-2.7,1.5-3.6c0.3,0.2,0.6,0.3,1,0.3c-0.3,1.3-0.9,4.7,1.1,7.2c0.5,0.7,1.2,1.2,2,1.6 c-0.5-0.1-1-0.3-1.5-0.4C45,55.1,44.8,55,44.7,55 M27.8,55.7c2.3-0.2,4.3-1,5.7-2.3c2.3-2.2,2.7-5.2,2.8-6.7 c0.5,0.8,2.1,3.6,1.2,6c-0.6,1.6-2.2,2.6-4.8,3.2C30.9,56.1,29.3,56,27.8,55.7 M20,41c0.4,0.6,0.6,1.6,0.6,2.9l0.1,2.4 C18.9,44,19.6,41.9,20,41 M19.2,35.4c-0.2-0.9-1.7-7.2,2.2-11c-1.2,1.7-2.1,4.2-0.6,7.3l0,0c-0.3,2.2-0.4,4.2-0.3,5.5 C20.1,36.7,19.7,36.1,19.2,35.4 M17.3,24.5c-0.6,0.9-1,1.9-1.3,2.9c-0.1-0.5-0.2-1.1-0.2-1.7c0-0.7,0-1.4,0-2.1c0-0.2,0-0.3,0-0.5 c0.5-1,2.7-4.1,8.6-4.6c0,0,0,0,0,0c0,0.3,0,0.5,0,0.8c-2.1,0.4-3.9,1.4-5.4,2.9l0.6,0.6c1.3-1.3,3-2.3,4.8-2.7 c0,0.5-0.1,1-0.2,1.5C18.1,24,17.7,30,18,33.3c-0.6-1.3-1.2-2.7-1.7-4.2c0.3-1.4,0.8-2.8,1.6-4.1L17.3,24.5z M22.6,17.9 c-3.4,0.6-5.3,2.1-6.4,3.3c0.5-2,1.5-3.9,3.2-5.8C19.7,16.2,20.6,17.4,22.6,17.9 M21,30.2c-1.1-3.8,1.7-6.4,2.9-7.4 c-0.3,0.8-0.6,1.6-1.2,2.6C21.9,26.9,21.4,28.6,21,30.2 M22.3,52.2c-0.3-0.1-0.5-0.2-0.8-0.3c2.7,0.2,6.6-0.5,9.1-4.7 c0.6-0.9,1.5-1.6,2.5-1.9c-0.4,0.5-0.8,1.2-1,2.3c-0.3,1.3-1,3.5-3,4.7C27.4,53.2,25.1,53.2,22.3,52.2 M29.4,52.9 c2.3-1.3,3.1-3.8,3.4-5.2c0.5-2.2,1.6-2.6,2.2-2.7c0.1,0.4,0.2,0.7,0.5,1c0,0.3,0,1.2-0.2,2.4c-1.2,2.4-3,4-5.2,4.6 c-0.4,0.1-0.9,0.2-1.3,0.3C29,53.1,29.2,53,29.4,52.9 M40.3,52.3c0.2,0,0.4,0,0.6,0c0.2,0.6,0.6,1.1,1,1.6c-1,0.2-2,0.1-2.6,0 C39.7,53.4,40,52.9,40.3,52.3 M38.4,46.4c1,1,1.5,2.3,1.5,3.6c0,1.8-1.1,3.6-2.7,4.5c0.5-0.5,0.8-1,1.1-1.6c0.9-2.3-0.3-4.9-1-6.2 C37.7,46.8,38.1,46.6,38.4,46.4 M38.6,54.6c0.3,0.1,1,0.3,2,0.3c0.6,0,1.2-0.1,1.9-0.3c0.3,0.3,0.6,0.5,1,0.7 c-1.8,0.4-4,0.4-5.8,0C38,55.1,38.3,54.8,38.6,54.6 M46,45.2c0.8,0.4,2.7,1.6,3.6,4.3c0.2,0.7,0.6,1.3,1.2,1.9 c-3.3-1.7-4.8-4.6-5.1-5.4C45.8,45.7,45.9,45.4,46,45.2 M53.7,52.2c-1.7-0.6-2.9-1.6-3.3-2.9c-0.7-2.1-2-3.4-3-4.1 c1.3,0.3,2.4,1,3.2,2.1c2.6,4.4,6.6,4.9,9.3,4.7C57.7,52.7,55.5,52.8,53.7,52.2 M59.8,38.1l-0.2,5.8c0,0,0,0,0,0l-0.2,7.2 c-2.4,0.1-6-0.5-8.3-4.4c-1.1-1.6-2.9-2.6-4.9-2.6c-0.1,0-0.2,0-0.3,0c-0.1-0.4-0.2-0.7-0.5-1l-0.6,0.5c0.2,0.3,0.3,0.6,0.3,0.9 c0,0.8-0.6,1.4-1.4,1.4c-0.4,0-0.8-0.2-1-0.4l-0.3-0.3l-0.3,0.3c-0.4,0.4-1.2,1-1.7,1c-0.5,0-1.3-0.6-1.7-1l-0.3-0.3l-0.3,0.3 c-0.3,0.3-0.6,0.4-1,0.4c-0.8,0-1.4-0.6-1.4-1.4c0-0.3,0.1-0.7,0.3-0.9l-0.6-0.5c-0.2,0.3-0.4,0.6-0.5,1c-0.1,0-0.2,0-0.2,0 c-2,0-3.8,1-4.9,2.6c-2.4,3.9-5.8,4.5-8.3,4.4l-0.2-7.3c0,0,0,0,0,0l-0.2-5.8l0,0c-0.1-1.5-0.3-7.8,2.2-12.2 c2-3.5,1.8-5.7,1.7-7.4C25.1,17,25,16,26.1,14.6C27,13.5,28,13,29.8,13c1.3,0,2.9,0.2,4.9,0.5c3.1,0.5,7.1,1,12.2,1 c2.6,0,4.8-0.6,6.6-1.7c0.4,0.2,0.7,0.6,1,1c0,0,0,0,0,0c0,0.1,0.1,0.1,0.1,0.2c0.4,0.6,0.7,1.2,0.9,1.7h0c0,0.1,0,0.1,0.1,0.2 c0.3,0.9,0.2,1.7,0.2,2.6c-0.1,1.8-0.1,3.8,1.8,7.2C60.1,30.3,59.9,36.6,59.8,38.1L59.8,38.1z M32.4,6.5c5-1.4,8.2-3.1,9.9-4.4 c-0.7,1.4-2.2,3.5-5.4,4.5c-4.9,1.6-6.3,4.6-6.5,5.2c-0.1,0.1-0.2,0.3-0.4,0.5c0,0-0.1,0-0.1,0c-0.8,0-1.4,0.1-2,0.2 C27.7,11.2,27.9,7.7,32.4,6.5 M51.8,3.3c-0.6,7.7-8.6,9.9-9.2,10.1c-0.4,0.1-0.9,0.2-1.4,0.2c-0.9-0.1-1.8-0.2-2.6-0.3 C46.7,11.1,50.3,6.2,51.8,3.3 M58.7,26.1c-0.1-0.2-0.2-0.4-0.3-0.6c-1.1-1.9-1.5-3.4-1.6-4.6c1.2,2,3.5,5.3,6.8,6.1 c-0.2,1.3-0.4,2.5-0.8,3.7C61.7,26.9,58.8,26,58.7,26.1L58.7,26.1z M59.1,27c1,0.5,2.8,1.9,3.2,5.3c-0.5,1.7-1.1,3.2-1.6,4.2 C60.7,34.3,60.5,30.4,59.1,27 M63.4,19.1c-3.9-0.5-8.2-5.7-8.3-5.8l0,0c0,0,0,0-0.1-0.1c1.5-0.2,5.2-0.2,7.7,3.5 C63,17.6,63.2,18.4,63.4,19.1 M54.4,12.6c-0.1-0.1-0.2-0.1-0.2-0.2c0.4-0.3,0.8-0.7,1.2-1.2c0.7-0.8,1.2-1.7,1.5-2.6 c2.3,1.8,3.8,3.7,4.9,5.8C58.8,12,55.3,12.4,54.4,12.6 M54.7,10.7c-1.7,2-4.4,3.1-7.8,3.1c-0.9,0-1.7,0-2.5,0 c7.3-1.7,10.8-5.2,12.3-7.4C56.4,7.8,55.8,9.4,54.7,10.7 M32.1,5.7c-5.3,1.5-5.2,5.9-5.1,7.1c-0.3,0.1-0.5,0.3-0.7,0.4 c-0.4-1.5-1.3-5.3,0.3-8.4c0.9-1.7,2.4-2.9,4.6-3.6c0.4,0,0.9,0,1.3,0h9.4C40.4,2.6,37.2,4.3,32.1,5.7 M24.4,16.5 c0,0.3-0.1,0.6-0.1,0.8c-3.7,0-4.4-2.5-4.5-2.6c0-0.2-0.7-4.1,1-7.6C20,11.6,23.6,15.6,24.4,16.5 M20.5,38.6l0,1.8 c-0.2-0.2-0.4-0.4-0.6-0.6c-1-0.6-2-0.1-2.1-0.1l0.3,0.7c0,0,0.6-0.3,1.2,0c-0.5,1-1.6,4,1.4,7l0.1,2.5c-1.5-1.2-3.5-3.5-3.9-6.8 c-0.2-2,0.1-3.6,0.9-4.5c0.7-0.8,1.5-1,1.9-1C20.1,38.1,20.4,38.4,20.5,38.6 M27.6,54.1c0.9,0,1.8-0.1,2.8-0.4 c1.4-0.4,2.6-1.1,3.6-2.1c-0.3,0.4-0.6,0.8-1,1.2c-1.8,1.7-4.5,2.4-7.9,2.1c-1.6-0.6-2.9-1.5-3.9-2.2 C22.8,53.4,25.1,54.1,27.6,54.1 M27.2,56.4c1.1,0.3,2.3,0.4,3.6,0.4c0.6,0,1.3,0,2-0.1l0,0c0,0,0,0,0,0c1.1-0.1,2.2-0.4,3.4-0.8 c0.1,0,0.2-0.1,0.4-0.1c1.2,0.4,2.6,0.6,4,0.6c1.4,0,2.8-0.2,4-0.6c0.1,0,0.2,0.1,0.3,0.1c1.9,0.6,3.7,0.9,5.4,0.9 c1,0,1.9-0.1,2.8-0.2c0,0,0.1,0,0.1,0l0,0c0.2,0,0.4-0.1,0.7-0.1c-1.6,1.5-3.2,2.5-4.8,2.9c0,0-0.1,0-0.1,0l0,0 c-2.1,0.5-4.3,0-6.3-1.5c0.5-0.1,1.1-0.2,1.5-0.4l-0.3-0.7c-1.8,0.7-4.7,0.7-6.5,0L37,57.4c0.5,0.2,1,0.3,1.5,0.4 C34.9,60.4,31.1,60,27.2,56.4 M47.1,60.3c3.2,1.9,4.3,5.6,4.7,8.7c-1-2.1-2.6-3.6-4.2-5.1c-2.1-2-2.4-3.3-2.4-3.9 C45.9,60.2,46.5,60.3,47.1,60.3 M40.7,79.2c-0.9-1-7-8.3-0.9-19.2c-0.4,4.5-0.4,13.9,7,18.1C44.9,78.8,42.9,79.2,40.7,79.2 M55,63.3c-1.4-2.1-3.3-3.1-4.7-3.6c1.7-0.7,3.4-1.9,5.1-3.7c0.4-0.1,0.8-0.3,1.2-0.5c0.6,0.4,3.2,2.8,1.9,10.5 c-0.5,1.6-1.3,3.2-2.2,4.6C56.7,67.7,56.3,65.3,55,63.3 M58,53.9c-2.6,0.6-4.9,0.6-6.9-0.1l-0.3,0.8c1.1,0.4,2.3,0.6,3.6,0.6 c0.3,0,0.6,0,0.9,0c-0.8,0.3-1.6,0.5-2.5,0.7c-3.7,0.2-6.2-0.5-7.6-2.3c-1.9-2.4-1.1-5.9-0.8-6.8c0,0,0,0,0.1,0 c0.5,2.7,1.9,5.1,3.9,6.6l0.5-0.6c-1.6-1.2-2.8-3.1-3.4-5.2c1.3,2.2,4.6,5.9,10.7,5.9c0.3,0,0.5,0,0.8,0l0,0 c1-0.1,1.9-0.3,2.9-0.6C59.3,53.1,58.7,53.5,58,53.9 M60.2,51.1L60.2,51.1C60.2,51,60.2,51,60.2,51.1L60.2,51.1 C60.3,51.1,60.2,51.1,60.2,51.1 M64.2,43.2c-0.4,3.3-2.4,5.5-3.9,6.8l0.1-2.5c3-3.1,1.9-6,1.4-7c0.6-0.3,1.1,0,1.2,0l0.3-0.7 c0,0-1.1-0.5-2.1,0.1c-0.2,0.1-0.4,0.3-0.6,0.6l0.1-1.9c0.1-0.1,0.3-0.5,0.5-1v0c0,0,1.3,0,2.2,1C64.1,39.6,64.4,41.1,64.2,43.2 M19.2,36.8c0,0,0.1,0.1,0.1,0.1c-0.6,0.1-1.4,0.5-2,1.2c-0.5,0.5-0.8,1.2-1,2c0,0,0,0,0,0C16.8,36.1,18.1,36.1,19.2,36.8 M21.7,54c0.7,0.4,1.4,0.9,2.2,1.2C23.6,57,22.2,66,26.7,73.1c-3.1-3.4-4.9-7.8-4.9-12.7V54z M24.7,55.6 C24.7,55.6,24.8,55.6,24.7,55.6L24.7,55.6c0.1,0,0.1,0,0.1,0c0.3,0.1,0.5,0.2,0.8,0.3c0.3,0.3,0.6,0.6,0.9,0.9 c-0.3,0.5-1.3,2.3-1.1,5.5l0.8,0c-0.2-2.7,0.6-4.3,0.9-4.9c0.5,0.4,1,0.8,1.5,1.2c-4.5,9.6,1.3,16.3,4.6,19.2 c-1.1-0.4-2.1-1-3-1.6C22.7,69.5,24.3,58,24.7,55.6 M58.9,67.3C58.9,67.3,58.9,67.3,58.9,67.3c0-0.1,0.1-0.2,0.1-0.3 C59,67.1,59,67.2,58.9,67.3"></path> <path class="st1" d="M29.3,79h1.1l1.1-1.1c-0.2-0.1-0.5-0.3-0.7-0.4L29.3,79z"></path> <path class="st1" d="M31.2,31.4c-2.5,0.1-4.2,2.3-4.3,2.4l0.6,0.5c0,0,0.9-1.1,2.2-1.7c-0.1,0.2-0.1,0.4-0.1,0.7 c0,0.9,0.7,1.7,1.7,1.7s1.7-0.7,1.7-1.7c0-0.3-0.1-0.5-0.2-0.7c0.8,0.3,1.5,0.9,2.2,1.8l0.6-0.5C34.2,32.2,32.7,31.3,31.2,31.4 M30.5,33.5c-0.2,0-0.4-0.2-0.4-0.4s0.2-0.4,0.4-0.4s0.4,0.2,0.4,0.4S30.7,33.5,30.5,33.5"></path> <path class="st1" d="M49.5,31.3c-1.6,0-3,0.8-4.4,2.4l0.6,0.5c0.7-0.9,1.5-1.4,2.2-1.8c-0.1,0.2-0.2,0.4-0.2,0.7 c0,0.9,0.7,1.7,1.7,1.7c0.9,0,1.7-0.7,1.7-1.7c0-0.2-0.1-0.5-0.1-0.7c1.3,0.6,2.2,1.7,2.2,1.7l0.6-0.5 C53.8,33.6,52,31.4,49.5,31.3 M48.7,33.4c-0.2,0-0.4-0.2-0.4-0.4s0.2-0.4,0.4-0.4s0.4,0.2,0.4,0.4S48.9,33.4,48.7,33.4"></path> <path class="st1" d="M49.9,26c-0.4,0-0.9,0-1.3,0.1c0,0-0.1,0-0.1,0l0,0c-1.6,0.1-3.1,0.5-4,1c-0.7,0.4-1.1,0.9-1.1,1.5 c0,0.6,0.4,1.1,0.7,1.3C43.5,30.5,42.7,32,44,34l0.7-0.4c-1.3-2,0.1-3.2,0.3-3.4c2.1-1,4.5-1.5,7-1.5c3.1,0,5.4,0.9,5.4,0.9 c0.2,0.1,0.4,0,0.5-0.1c0.1-0.2,0.1-0.4,0-0.5C55.6,26.3,51.9,26,49.9,26 M51.4,27.9c-1.1,0-2.3,0.2-3.3,0.4c-1.2-0.3-1.7-0.7-2-1 c0.7-0.2,1.5-0.4,2.5-0.5C49,27,50.1,27.4,51.4,27.9 M44.9,27.7c0.1-0.1,0.2-0.1,0.3-0.2c0.2,0.3,0.6,0.7,1.5,1.1 c-0.7,0.2-1.3,0.5-2,0.8c-0.2-0.2-0.6-0.5-0.6-0.8C44.2,28.2,44.6,27.9,44.9,27.7 M54.9,28.1c-1.3-0.3-2.9-0.9-4.1-1.3 c2,0.1,3.8,0.6,5.1,1.5C55.6,28.2,55.3,28.2,54.9,28.1"></path> <path class="st1" d="M38.2,37.1c1.3-3.9-0.6-6.4-1.5-7.2c0.3-0.3,0.7-0.8,0.7-1.3c0-0.6-0.4-1.1-1.1-1.5C35.1,26.4,33,26,30.9,26 c-2,0-5.7,0.4-7.9,2.9c0,0-0.1,0.1-0.1,0.1h0c0,0-1.4,4.1,3.1,6l0.3-0.7c-3.3-1.4-2.9-4.1-2.7-4.8c0.4-0.1,1.3-0.4,2.6-0.6l0,0 c0,0,0,0,0,0c0.8-0.1,1.7-0.2,2.6-0.2c0.9,0,1.8,0.1,2.6,0.2v0l0,0c1.5,0.2,3,0.7,4.3,1.3c0.3,0.2,3,2.5,1.6,6.7L38.2,37.1z M29.2,26.9c-1.4,0.5-2.7,1-3.1,1.2c-0.4,0.1-0.8,0.1-1.1,0.2C26,27.5,27.5,27.1,29.2,26.9 M28.8,27.9c1.1-0.4,2.3-0.8,3.4-1 c1,0.1,2,0.3,2.8,0.5c-1.5,0-3,0.5-3.5,0.7c-0.8-0.1-1.7-0.2-2.5-0.2C28.9,27.9,28.8,27.9,28.8,27.9 M36.5,28.3 c0,0.1,0.1,0.2,0.1,0.2c0,0.3-0.3,0.6-0.6,0.8c-0.9-0.4-1.9-0.8-2.9-1C34.1,28.2,35.4,28,36.5,28.3"></path> <path class="st1" d="M34.5,31.8l0.4-0.7c-4.8-3.2-8.7,1.1-8.8,1.1l0.6,0.5C26.9,32.6,30.4,29,34.5,31.8"></path> <path class="st1" d="M48.8,30l0.1,0.8c0.1,0,3-0.5,4.8,2.3l0.7-0.4C52.2,29.3,48.9,29.9,48.8,30"></path> <path class="st1" d="M62.9,40.5"></path> <polygon class="st1" points="63,40.1 62.9,40.5 62.9,40.5 "></polygon> <path class="st1" d="M38,43.9l0.8-0.1c0,0-0.2-1.2,0.9-1.9l-0.4-0.7C37.7,42.2,37.9,43.8,38,43.9"></path> <g> <path class="st0" d="M110.1,66.9l-6.4-22.6h-0.2c0.3,3.9,0.5,6.8,0.5,9v13.6h-7.5V35.5h11.3l6.6,22.3h0.2l6.4-22.3h11.3v31.4 h-7.8V53.1c0-0.7,0-1.5,0-2.4s0.1-3,0.3-6.4h-0.2l-6.3,22.6L110.1,66.9L110.1,66.9z"></path> <path class="st0" d="M158.1,66.9l-1.5-5.9h-10.2l-1.6,5.9h-9.3l10.2-31.5H157l10.4,31.5H158.1z M154.8,54l-1.4-5.2 c-0.3-1.1-0.7-2.6-1.1-4.4s-0.7-3.1-0.9-3.9c-0.1,0.7-0.4,1.9-0.8,3.6c-0.4,1.7-1.2,5-2.5,9.9C148.1,54,154.8,54,154.8,54z"></path> <path class="st0" d="M198.4,66.9h-8.5V42.4h-6c-0.3,3.6-0.8,7.2-1.3,10.9c-0.6,3.7-1.1,6.3-1.6,7.8c-0.5,1.5-1.1,2.7-1.9,3.6 c-0.8,0.9-1.7,1.5-2.8,2c-1.1,0.5-2.5,0.7-4.1,0.7c-1.2,0-2.3-0.2-3.3-0.5v-6.6c0.9,0.3,1.6,0.4,2.1,0.4c0.7,0,1.3-0.3,1.7-0.9 s0.8-1.7,1.1-3.2c0.3-1.5,0.8-4.3,1.4-8.3c0.6-4.1,1.1-8.3,1.6-12.8h21.7L198.4,66.9L198.4,66.9z"></path> <path class="st0" d="M222.9,66.9h-18.6V35.5h18.6v6.8h-10.2v4.9h9.4V54h-9.4V60h10.2V66.9z"></path> <path class="st0" d="M229.2,35.5h11c4.3,0,7.4,0.6,9.5,1.9c2.1,1.3,3.1,3.2,3.1,5.9c0,1.8-0.5,3.3-1.4,4.5s-2.1,2-3.6,2.4v0.2 c1.9,0.5,3.4,1.4,4.2,2.6s1.3,2.8,1.3,4.7c0,2.9-1.1,5.1-3.2,6.7c-2.1,1.6-5.1,2.5-8.8,2.5h-12.2L229.2,35.5L229.2,35.5z M237.7,47.5h2.6c1.2,0,2.2-0.2,2.8-0.8c0.7-0.5,1-1.2,1-2.2c0-1.8-1.3-2.6-4-2.6h-2.4V47.5z M237.7,53.7v6.6h3 c2.6,0,4-1.1,4-3.4c0-1-0.4-1.8-1.1-2.4s-1.7-0.8-3.1-0.8C240.5,53.7,237.7,53.7,237.7,53.7z"></path> <path class="st0" d="M258.9,35.5h7.6V49c0,1.4-0.1,4.3-0.3,8.6h0.2l12.5-22.1h10.5v31.4h-7.5V53.7c0-2,0.1-5,0.4-8.9h-0.2 l-12.6,22.1h-10.5L258.9,35.5L258.9,35.5z"></path> <path class="st0" d="M322.6,66.9h-8.6V55.3c-3.6,1.3-6.9,1.9-9.7,1.9c-3,0-5.3-0.7-7-2.2s-2.5-3.5-2.5-6.2V35.5h8.6v10.5 c0,1.5,0.3,2.6,0.9,3.3c0.6,0.7,1.6,1,2.9,1c1.8,0,4.1-0.5,6.8-1.5V35.5h8.6V66.9z"></path> </g> <g> <path class="st0" d="M103.8,12.1c0.7,0.1,1.3,0.3,2,0.6c0.6,0.3,1.1,0.7,1.6,1.1c0.4,0.5,0.8,1,1,1.5s0.4,1.2,0.4,1.8 c0,0.7-0.1,1.3-0.4,1.8s-0.6,1.1-1,1.5c-0.4,0.4-1,0.8-1.6,1.1c-0.6,0.3-1.3,0.5-2,0.6v0.5c0,0.1,0,0.2-0.1,0.3s-0.2,0.1-0.3,0.1 h-1.9c-0.2,0-0.4-0.1-0.4-0.4v-0.5c-0.7-0.1-1.3-0.3-1.9-0.6s-1.1-0.7-1.6-1.1c-0.4-0.4-0.8-1-1-1.5c-0.3-0.6-0.4-1.2-0.4-1.8 c0-0.6,0.1-1.2,0.4-1.8c0.2-0.6,0.6-1.1,1-1.5c0.4-0.4,1-0.8,1.6-1.1c0.6-0.3,1.2-0.5,1.9-0.6v-0.5c0-0.1,0-0.2,0.1-0.3 c0.1-0.1,0.2-0.1,0.3-0.1h1.9c0.1,0,0.2,0,0.3,0.1c0.1,0.1,0.1,0.1,0.1,0.3V12.1z M99.1,17.1c0,0.3,0,0.6,0.1,0.8 c0.1,0.3,0.2,0.5,0.4,0.7c0.2,0.2,0.4,0.4,0.6,0.5c0.3,0.2,0.5,0.3,0.8,0.4v-4.9c-0.3,0.1-0.6,0.2-0.8,0.4s-0.5,0.3-0.7,0.5 c-0.2,0.2-0.3,0.4-0.4,0.7C99.2,16.5,99.1,16.8,99.1,17.1z M105.6,17.1c0-0.3,0-0.5-0.1-0.8s-0.2-0.5-0.4-0.7s-0.4-0.4-0.6-0.5 s-0.5-0.3-0.8-0.4v4.7c0.3-0.1,0.5-0.2,0.8-0.4s0.4-0.3,0.6-0.5s0.3-0.4,0.4-0.7C105.6,17.6,105.6,17.4,105.6,17.1z"></path> <path class="st0" d="M115.4,17.2c0-0.6,0.1-1.1,0.2-1.6c0.1-0.5,0.3-1,0.6-1.5s0.6-0.9,1-1.2c0.4-0.4,0.8-0.7,1.2-1 c0.5-0.3,0.9-0.5,1.5-0.6s1.1-0.2,1.6-0.2c0.6,0,1.1,0.1,1.6,0.2c0.5,0.1,1,0.4,1.5,0.6c0.5,0.3,0.9,0.6,1.2,1 c0.4,0.4,0.7,0.8,1,1.2c0.3,0.5,0.5,0.9,0.6,1.5c0.1,0.5,0.2,1.1,0.2,1.6s-0.1,1.1-0.2,1.6c-0.1,0.5-0.4,1-0.6,1.5 c-0.3,0.5-0.6,0.9-1,1.2c-0.4,0.4-0.8,0.7-1.2,1c-0.5,0.3-0.9,0.5-1.5,0.6c-0.5,0.1-1.1,0.2-1.6,0.2c-0.6,0-1.1-0.1-1.6-0.2 s-1-0.3-1.5-0.6c-0.5-0.3-0.9-0.6-1.2-1s-0.7-0.8-1-1.2c-0.3-0.5-0.5-0.9-0.6-1.5S115.4,17.7,115.4,17.2z M118.5,17.1 c0,0.4,0.1,0.9,0.2,1.2c0.1,0.4,0.4,0.7,0.6,1c0.3,0.3,0.6,0.5,1,0.7c0.4,0.2,0.8,0.2,1.2,0.2c0.4,0,0.8-0.1,1.2-0.2 s0.7-0.4,1-0.7c0.3-0.3,0.5-0.6,0.6-1c0.1-0.4,0.2-0.8,0.2-1.2c0-0.4-0.1-0.8-0.2-1.2s-0.4-0.7-0.6-1c-0.3-0.3-0.6-0.5-1-0.7 c-0.4-0.2-0.8-0.2-1.2-0.2c-0.4,0-0.8,0.1-1.2,0.2s-0.7,0.4-1,0.7c-0.3,0.3-0.5,0.6-0.6,1S118.5,16.7,118.5,17.1z"></path> <path class="st0" d="M133.2,11.6c0-0.1,0-0.2,0.1-0.3c0.1-0.1,0.2-0.1,0.3-0.1h8.6c0.1,0,0.2,0,0.3,0.1c0.1,0.1,0.1,0.1,0.1,0.3 v2c0,0.1,0,0.2-0.1,0.3c-0.1,0.1-0.2,0.1-0.3,0.1h-2.8v8.8c0,0.1,0,0.2-0.1,0.3c-0.1,0.1-0.2,0.1-0.3,0.1h-2.4 c-0.1,0-0.2,0-0.3-0.1c-0.1-0.1-0.1-0.2-0.1-0.3V14h-2.8c-0.1,0-0.2,0-0.3-0.1s-0.1-0.2-0.1-0.3V11.6z"></path> <path class="st0" d="M148.3,17.2c0-0.6,0.1-1.1,0.2-1.6c0.1-0.5,0.3-1,0.6-1.5s0.6-0.9,1-1.2c0.4-0.4,0.8-0.7,1.2-1 c0.5-0.3,0.9-0.5,1.5-0.6s1.1-0.2,1.6-0.2c0.6,0,1.1,0.1,1.6,0.2c0.5,0.1,1,0.4,1.5,0.6c0.5,0.3,0.9,0.6,1.2,1 c0.4,0.4,0.7,0.8,1,1.2c0.3,0.5,0.5,0.9,0.6,1.5c0.1,0.5,0.2,1.1,0.2,1.6s-0.1,1.1-0.2,1.6c-0.1,0.5-0.4,1-0.6,1.5 c-0.3,0.5-0.6,0.9-1,1.2c-0.4,0.4-0.8,0.7-1.2,1c-0.5,0.3-0.9,0.5-1.5,0.6c-0.5,0.1-1.1,0.2-1.6,0.2c-0.6,0-1.1-0.1-1.6-0.2 s-1-0.3-1.5-0.6c-0.5-0.3-0.9-0.6-1.2-1s-0.7-0.8-1-1.2c-0.3-0.5-0.5-0.9-0.6-1.5S148.3,17.7,148.3,17.2z M151.4,17.1 c0,0.4,0.1,0.9,0.2,1.2c0.1,0.4,0.4,0.7,0.6,1c0.3,0.3,0.6,0.5,1,0.7c0.4,0.2,0.8,0.2,1.2,0.2c0.4,0,0.8-0.1,1.2-0.2 s0.7-0.4,1-0.7c0.3-0.3,0.5-0.6,0.6-1c0.1-0.4,0.2-0.8,0.2-1.2c0-0.4-0.1-0.8-0.2-1.2s-0.4-0.7-0.6-1c-0.3-0.3-0.6-0.5-1-0.7 c-0.4-0.2-0.8-0.2-1.2-0.2c-0.4,0-0.8,0.1-1.2,0.2s-0.7,0.4-1,0.7c-0.3,0.3-0.5,0.6-0.6,1S151.4,16.7,151.4,17.1z"></path> <path class="st0" d="M165.9,11.6c0-0.1,0-0.2,0.1-0.2c0.1-0.1,0.1-0.1,0.3-0.1h2.4c0.1,0,0.2,0,0.3,0.1s0.1,0.1,0.1,0.3v4.3 c0.1,0,0.1,0,0.2-0.1c0.1-0.1,0.2-0.1,0.3-0.2c0.1-0.1,0.2-0.2,0.3-0.3s0.2-0.2,0.2-0.3c0.1-0.1,0.1-0.2,0.2-0.3s0.1-0.1,0.1-0.2 c0.3-0.5,0.6-1,0.8-1.4c0.3-0.4,0.6-0.7,1-1s0.8-0.5,1.2-0.6s1-0.2,1.7-0.2c0.2,0,0.3,0.1,0.3,0.3v2.1c0,0.1,0,0.2-0.1,0.2 c-0.1,0.1-0.1,0.1-0.2,0.1c-0.2,0-0.4,0.1-0.6,0.2c-0.2,0.1-0.4,0.3-0.6,0.5c-0.2,0.2-0.4,0.4-0.6,0.7c-0.2,0.2-0.3,0.5-0.5,0.7 s-0.3,0.4-0.4,0.6c-0.1,0.2-0.2,0.3-0.3,0.4l4.7,5.7c0.1,0.1,0.1,0.1,0.1,0.2c0,0.1-0.1,0.1-0.2,0.1h-3.2c-0.1,0-0.2,0-0.3-0.1 c-0.1-0.1-0.2-0.1-0.2-0.2l-3-3.8c-0.2,0.1-0.3,0.2-0.5,0.2s-0.3,0-0.4,0v3.5c0,0.2-0.1,0.4-0.4,0.4h-2.4c-0.2,0-0.4-0.1-0.4-0.4 V11.6z"></path> <path class="st0" d="M183.4,11.6c0-0.1,0-0.2,0.1-0.2c0.1-0.1,0.1-0.1,0.2-0.1h2.4c0.1,0,0.2,0,0.2,0.1c0.1,0.1,0.1,0.1,0.1,0.3 v3.8h4v-3.8c0-0.1,0-0.2,0.1-0.2s0.2-0.1,0.3-0.1h2.3c0.1,0,0.2,0,0.3,0.1s0.1,0.1,0.1,0.3v11.2c0,0.1,0,0.2-0.1,0.3 s-0.2,0.1-0.3,0.1h-2.4c-0.1,0-0.2,0-0.3-0.1s-0.1-0.1-0.1-0.3v-4.5h-4v4.5c0,0.1,0,0.2-0.1,0.3c-0.1,0.1-0.2,0.1-0.3,0.1h-2.4 c-0.2,0-0.3-0.1-0.3-0.3L183.4,11.6L183.4,11.6z"></path> <path class="st0" d="M211,22.7c0,0.1,0,0.2-0.1,0.2c-0.1,0.1-0.1,0.1-0.3,0.1h-2.3c-0.1,0-0.2,0-0.3-0.1s-0.1-0.1-0.1-0.3v-6.9 c-0.7,1.2-1.4,2.3-2.1,3.5s-1.4,2.3-2.1,3.5c-0.1,0.1-0.1,0.1-0.2,0.2s-0.1,0.1-0.2,0.1h-2.6c-0.1,0-0.2,0-0.3-0.1 c-0.1,0-0.1-0.1-0.1-0.2V11.6c0-0.1,0-0.2,0.1-0.3c0.1-0.1,0.2-0.1,0.3-0.1h2.3c0.1,0,0.2,0,0.2,0.1s0.1,0.1,0.1,0.2v6.4 c0.7-1.1,1.4-2.2,2-3.2c0.7-1.1,1.3-2.1,2-3.2c0.1-0.1,0.1-0.2,0.2-0.2c0.1,0,0.2-0.1,0.2-0.1h2.6c0.1,0,0.2,0,0.3,0.1 s0.1,0.2,0.1,0.2L211,22.7L211,22.7z"></path> <path class="st0" d="M217.9,11.6c0-0.2,0.1-0.4,0.4-0.4h7.1c0.1,0,0.2,0,0.3,0.1c0.1,0.1,0.1,0.2,0.1,0.3v2.1 c0,0.1,0,0.2-0.1,0.3s-0.2,0.1-0.2,0.1H221v8.7c0,0.1,0,0.2-0.1,0.3s-0.2,0.1-0.3,0.1h-2.4c-0.1,0-0.2,0-0.3-0.1 c-0.1-0.1-0.1-0.2-0.1-0.2V11.6z"></path> <path class="st0" d="M241.8,22.7c0,0.1,0,0.2-0.1,0.2c-0.1,0.1-0.1,0.1-0.3,0.1h-2.3c-0.1,0-0.2,0-0.3-0.1s-0.1-0.1-0.1-0.3v-6.9 c-0.7,1.2-1.4,2.3-2.1,3.5s-1.4,2.3-2.1,3.5c-0.1,0.1-0.1,0.1-0.2,0.2s-0.1,0.1-0.2,0.1h-2.6c-0.1,0-0.2,0-0.3-0.1 c-0.1,0-0.1-0.1-0.1-0.2V11.6c0-0.1,0-0.2,0.1-0.3c0.1-0.1,0.2-0.1,0.3-0.1h2.3c0.1,0,0.2,0,0.2,0.1s0.1,0.1,0.1,0.2v6.4 c0.7-1.1,1.4-2.2,2-3.2c0.7-1.1,1.3-2.1,2-3.2c0.1-0.1,0.1-0.2,0.2-0.2c0.1,0,0.2-0.1,0.2-0.1h2.6c0.1,0,0.2,0,0.3,0.1 s0.1,0.2,0.1,0.2L241.8,22.7L241.8,22.7z"></path> </g> </g> </g> </svg> 