<?xml version="1.0" encoding="UTF-8"?> <!-- Generator: Adobe Illustrator 21.1.0, SVG Export Plug-In . SVG Version: 6.00 Build 0) --> <svg xmlns="http://www.w3.org/2000/svg" xmlns:xlink="http://www.w3.org/1999/xlink" id="Layer_1" x="0px" y="0px" viewBox="0 0 226.1 58.1" style="enable-background:new 0 0 226.1 58.1;" xml:space="preserve"> <style type="text/css"> .st0{fill:#D6D2CD;} </style> <g> <path class="st0" d="M13.6,57.6L7.2,35H7c0.3,3.9,0.5,6.8,0.5,9v13.6H0V26.2h11.3l6.6,22.3h0.2l6.4-22.3h11.3v31.4H28V43.8 c0-0.7,0-1.5,0-2.4s0.1-3,0.3-6.4h-0.2l-6.3,22.6L13.6,57.6L13.6,57.6z"></path> <path class="st0" d="M61.6,57.6l-1.5-5.9H49.9l-1.6,5.9H39l10.2-31.5h11.3l10.4,31.5H61.6z M58.3,44.7l-1.4-5.2 c-0.3-1.1-0.7-2.6-1.1-4.4s-0.7-3.1-0.9-3.9c-0.1,0.7-0.4,1.9-0.8,3.6c-0.4,1.7-1.2,5-2.5,9.9C51.6,44.7,58.3,44.7,58.3,44.7z"></path> <path class="st0" d="M101.9,57.6h-8.5V33.1h-6c-0.3,3.6-0.8,7.2-1.3,10.9c-0.6,3.7-1.1,6.3-1.6,7.8s-1.1,2.7-1.9,3.6 c-0.8,0.9-1.7,1.5-2.8,2s-2.5,0.7-4.1,0.7c-1.2,0-2.3-0.2-3.3-0.5V51c0.9,0.3,1.6,0.4,2.1,0.4c0.7,0,1.3-0.3,1.7-0.9 s0.8-1.7,1.1-3.2s0.8-4.3,1.4-8.3c0.6-4.1,1.1-8.3,1.6-12.8H102L101.9,57.6L101.9,57.6z"></path> <path class="st0" d="M126.4,57.6h-18.6V26.2h18.6V33h-10.2v4.9h9.4v6.8h-9.4v6h10.2V57.6z"></path> <path class="st0" d="M132.7,26.2h11c4.3,0,7.4,0.6,9.5,1.9c2.1,1.3,3.1,3.2,3.1,5.9c0,1.8-0.5,3.3-1.4,4.5s-2.1,2-3.6,2.4v0.2 c1.9,0.5,3.4,1.4,4.2,2.6s1.3,2.8,1.3,4.7c0,2.9-1.1,5.1-3.2,6.7c-2.1,1.6-5.1,2.5-8.8,2.5h-12.2L132.7,26.2L132.7,26.2z M141.2,38.2h2.6c1.2,0,2.2-0.2,2.8-0.8c0.7-0.5,1-1.2,1-2.2c0-1.8-1.3-2.6-4-2.6h-2.4L141.2,38.2L141.2,38.2z M141.2,44.4V51h3 c2.6,0,4-1.1,4-3.4c0-1-0.4-1.8-1.1-2.4s-1.7-0.8-3.1-0.8C144,44.4,141.2,44.4,141.2,44.4z"></path> <path class="st0" d="M162.4,26.2h7.6v13.5c0,1.4-0.1,4.3-0.3,8.6h0.2l12.5-22.1h10.5v31.4h-7.5V44.4c0-2,0.1-5,0.4-8.9h-0.2 L173,57.6h-10.5L162.4,26.2L162.4,26.2z"></path> <path class="st0" d="M226.1,57.6h-8.6V46c-3.6,1.3-6.9,1.9-9.7,1.9c-3,0-5.3-0.7-7-2.2s-2.5-3.5-2.5-6.2V26.2h8.6v10.5 c0,1.5,0.3,2.6,0.9,3.3s1.6,1,2.9,1c1.8,0,4.1-0.5,6.8-1.5V26.2h8.6L226.1,57.6L226.1,57.6z"></path> </g> <g> <path class="st0" d="M11.5,1.6c1.1,0.2,2,0.5,3.1,0.9c0.9,0.5,1.7,1.1,2.5,1.7c0.6,0.8,1.2,1.6,1.6,2.3s0.6,1.9,0.6,2.8 c0,1.1-0.2,2-0.6,2.8s-0.9,1.7-1.6,2.3c-0.6,0.6-1.6,1.2-2.5,1.7c-0.9,0.5-2,0.8-3.1,0.9v0.8c0,0.2,0,0.3-0.2,0.5s-0.3,0.2-0.5,0.2 h-3c-0.3,0-0.6-0.2-0.6-0.6v-0.8c-1.1-0.2-2-0.5-3-0.9c-0.9-0.5-1.7-1.1-2.5-1.7c-0.6-0.6-1.2-1.6-1.6-2.3 c-0.5-0.9-0.6-1.9-0.6-2.8c0-0.9,0.2-1.9,0.6-2.8c0.3-0.9,0.9-1.7,1.6-2.3S3.4,3,4.4,2.5s1.9-0.8,3-0.9V0.8c0-0.2,0-0.3,0.2-0.5 c0.2-0.2,0.3-0.2,0.5-0.2h3c0.2,0,0.3,0,0.5,0.2c0.2,0.2,0.2,0.2,0.2,0.5V1.6z M4.2,9.3c0,0.5,0,0.9,0.2,1.2 C4.5,11,4.7,11.4,5,11.7c0.3,0.3,0.6,0.6,0.9,0.8c0.5,0.3,0.8,0.5,1.2,0.6V5.4C6.7,5.6,6.2,5.8,5.9,6.1C5.6,6.4,5.1,6.5,4.8,6.8 C4.5,7.2,4.4,7.5,4.2,7.9C4.4,8.4,4.2,8.9,4.2,9.3z M14.3,9.3c0-0.5,0-0.8-0.2-1.2S13.9,7.3,13.5,7c-0.3-0.3-0.6-0.6-0.9-0.8 c-0.3-0.2-0.8-0.5-1.2-0.6v7.3c0.5-0.2,0.8-0.3,1.2-0.6s0.6-0.5,0.9-0.8c0.3-0.3,0.5-0.6,0.6-1.1C14.3,10.1,14.3,9.8,14.3,9.3z"></path> <path class="st0" d="M29.6,9.5c0-0.9,0.2-1.7,0.3-2.5c0.2-0.8,0.5-1.6,0.9-2.3s0.9-1.4,1.6-1.9c0.6-0.6,1.2-1.1,1.9-1.6 c0.8-0.5,1.4-0.8,2.3-0.9S38.3,0,39,0c0.9,0,1.7,0.2,2.5,0.3c0.8,0.2,1.6,0.6,2.3,0.9c0.8,0.5,1.4,0.9,1.9,1.6 c0.6,0.6,1.1,1.2,1.6,1.9c0.5,0.8,0.8,1.4,0.9,2.3c0.2,0.8,0.3,1.7,0.3,2.5s-0.2,1.7-0.3,2.5c-0.2,0.8-0.6,1.6-0.9,2.3 c-0.5,0.8-0.9,1.4-1.6,1.9c-0.6,0.6-1.2,1.1-1.9,1.6c-0.8,0.5-1.4,0.8-2.3,0.9C40.8,18.8,39.8,19,39,19c-0.9,0-1.7-0.2-2.5-0.3 c-0.8-0.2-1.6-0.5-2.3-0.9c-0.8-0.5-1.4-0.9-1.9-1.6s-1.1-1.2-1.6-1.9c-0.5-0.8-0.8-1.4-0.9-2.3C29.7,11,29.6,10.3,29.6,9.5z M34.4,9.3c0,0.6,0.2,1.4,0.3,1.9c0.2,0.6,0.6,1.1,0.9,1.6c0.5,0.5,0.9,0.8,1.6,1.1c0.6,0.3,1.2,0.3,1.9,0.3c0.6,0,1.2-0.2,1.9-0.3 c0.6-0.2,1.1-0.6,1.6-1.1c0.5-0.5,0.8-0.9,0.9-1.6c0.2-0.6,0.3-1.2,0.3-1.9c0-0.6-0.2-1.2-0.3-1.9c-0.2-0.6-0.6-1.1-0.9-1.6 c-0.5-0.5-0.9-0.8-1.6-1.1c-0.6-0.3-1.2-0.3-1.9-0.3c-0.6,0-1.2,0.2-1.9,0.3c-0.6,0.2-1.1,0.6-1.6,1.1c-0.5,0.5-0.8,0.9-0.9,1.6 C34.5,8.1,34.4,8.7,34.4,9.3z"></path> <path class="st0" d="M57.2,0.8c0-0.2,0-0.3,0.2-0.5c0.2-0.2,0.3-0.2,0.5-0.2h13.4c0.2,0,0.3,0,0.5,0.2c0.2,0.2,0.2,0.2,0.2,0.5v3.1 c0,0.2,0,0.3-0.2,0.5c-0.2,0.2-0.3,0.2-0.5,0.2h-4.4v13.7c0,0.2,0,0.3-0.2,0.5c-0.2,0.2-0.3,0.2-0.5,0.2h-3.7c-0.2,0-0.3,0-0.5-0.2 c-0.2-0.2-0.2-0.3-0.2-0.5V4.5h-4.4c-0.2,0-0.3,0-0.5-0.2c-0.2-0.2-0.2-0.3-0.2-0.5V0.8H57.2z"></path> <path class="st0" d="M80.7,9.5c0-0.9,0.2-1.7,0.3-2.5c0.2-0.8,0.5-1.6,0.9-2.3c0.5-0.8,0.9-1.4,1.6-1.9c0.6-0.6,1.2-1.1,1.9-1.6 c0.8-0.5,1.4-0.8,2.3-0.9C88.6,0.2,89.4,0,90.2,0c0.9,0,1.7,0.2,2.5,0.3c0.8,0.2,1.6,0.6,2.3,0.9c0.8,0.5,1.4,0.9,1.9,1.6 C97.5,3.4,98,4,98.4,4.7c0.5,0.8,0.8,1.4,0.9,2.3c0.2,0.8,0.3,1.7,0.3,2.5s-0.2,1.7-0.3,2.5c-0.2,0.8-0.6,1.6-0.9,2.3 c-0.5,0.8-0.9,1.4-1.6,1.9c-0.6,0.6-1.2,1.1-1.9,1.6c-0.8,0.5-1.4,0.8-2.3,0.9C91.9,18.8,91,19,90.2,19c-0.9,0-1.7-0.2-2.5-0.3 c-0.8-0.2-1.6-0.5-2.3-0.9c-0.8-0.5-1.4-0.9-1.9-1.6c-0.5-0.6-1.1-1.2-1.6-1.9c-0.5-0.8-0.8-1.4-0.9-2.3 C80.9,11,80.7,10.3,80.7,9.5z M85.5,9.3c0,0.6,0.2,1.4,0.3,1.9c0.2,0.6,0.6,1.1,0.9,1.6c0.5,0.5,0.9,0.8,1.6,1.1 c0.6,0.3,1.2,0.3,1.9,0.3c0.6,0,1.2-0.2,1.9-0.3c0.6-0.2,1.1-0.6,1.6-1.1c0.5-0.5,0.8-0.9,0.9-1.6c0.2-0.6,0.3-1.2,0.3-1.9 c0-0.6-0.2-1.2-0.3-1.9s-0.6-1.1-0.9-1.6c-0.5-0.5-0.9-0.8-1.6-1.1c-0.6-0.3-1.2-0.3-1.9-0.3c-0.6,0-1.2,0.2-1.9,0.3 c-0.6,0.2-1.1,0.6-1.6,1.1c-0.5,0.5-0.8,0.9-0.9,1.6C85.7,8.1,85.5,8.7,85.5,9.3z"></path> <path class="st0" d="M108.1,0.8c0-0.2,0-0.3,0.2-0.3c0.2-0.2,0.2-0.2,0.5-0.2h3.7c0.2,0,0.3,0,0.5,0.2s0.2,0.2,0.2,0.5v6.7 c0.2,0,0.2,0,0.3-0.2c0.2-0.2,0.3-0.2,0.5-0.3c0.2-0.2,0.3-0.3,0.5-0.5c0.2-0.2,0.3-0.3,0.3-0.5c0.2-0.2,0.2-0.3,0.3-0.5 s0.2-0.2,0.2-0.3c0.5-0.8,0.9-1.6,1.2-2.2c0.5-0.6,0.9-1.1,1.6-1.6c0.6-0.5,1.2-0.8,1.9-0.9c0.6-0.2,1.6-0.3,2.6-0.3 c0.3,0,0.5,0.2,0.5,0.5v3.3c0,0.2,0,0.3-0.2,0.3c-0.2,0.2-0.2,0.2-0.3,0.2c-0.3,0-0.6,0.2-0.9,0.3c-0.3,0.2-0.6,0.5-0.9,0.8 c-0.3,0.3-0.6,0.6-0.9,1.1c-0.3,0.3-0.5,0.8-0.8,1.1c-0.3,0.3-0.5,0.6-0.6,0.9c-0.2,0.3-0.3,0.5-0.5,0.6l7.3,8.9 c0.2,0.2,0.2,0.2,0.2,0.3s-0.2,0.2-0.3,0.2h-5c-0.2,0-0.3,0-0.5-0.2c-0.2-0.2-0.3-0.2-0.3-0.3l-4.7-5.9c-0.3,0.2-0.5,0.3-0.8,0.3 s-0.5,0-0.6,0v5.4c0,0.3-0.2,0.6-0.6,0.6h-3.7c-0.3,0-0.6-0.2-0.6-0.6L108.1,0.8L108.1,0.8z"></path> <path class="st0" d="M135.3,0.8c0-0.2,0-0.3,0.2-0.3c0.2-0.2,0.2-0.2,0.3-0.2h3.7c0.2,0,0.3,0,0.3,0.2c0.2,0.2,0.2,0.2,0.2,0.5v5.9 h6.2V0.9c0-0.2,0-0.3,0.2-0.3c0.2,0,0.3-0.2,0.5-0.2h3.6c0.2,0,0.3,0,0.5,0.2c0.2,0.2,0.2,0.2,0.2,0.5v17.4c0,0.2,0,0.3-0.2,0.5 c-0.2,0.2-0.3,0.2-0.5,0.2h-3.7c-0.2,0-0.3,0-0.5-0.2s-0.2-0.2-0.2-0.5v-7h-6.2v7c0,0.2,0,0.3-0.2,0.5c-0.2,0.2-0.3,0.2-0.5,0.2 h-3.7c-0.3,0-0.5-0.2-0.5-0.5L135.3,0.8L135.3,0.8z"></path> <path class="st0" d="M178.2,18c0,0.2,0,0.3-0.2,0.3c-0.2,0.2-0.2,0.2-0.5,0.2H174c-0.2,0-0.3,0-0.5-0.2c-0.2-0.2-0.2-0.2-0.2-0.5 V7.2c-1.1,1.9-2.2,3.6-3.3,5.4c-1.1,1.9-2.2,3.6-3.3,5.4c-0.2,0.2-0.2,0.2-0.3,0.3c-0.2,0.2-0.2,0.2-0.3,0.2h-4 c-0.2,0-0.3,0-0.5-0.2c-0.2,0-0.2-0.2-0.2-0.3V0.8c0-0.2,0-0.3,0.2-0.5s0.3-0.2,0.5-0.2h3.6c0.2,0,0.3,0,0.3,0.2s0.2,0.2,0.2,0.3 v10c1.1-1.7,2.2-3.4,3.1-5c1.1-1.7,2-3.3,3.1-5c0.2-0.2,0.2-0.3,0.3-0.3c0.2,0,0.3-0.2,0.3-0.2h4c0.2,0,0.3,0,0.5,0.2 s0.2,0.3,0.2,0.3L178.2,18L178.2,18z"></path> <path class="st0" d="M188.9,0.8c0-0.3,0.2-0.6,0.6-0.6h11c0.2,0,0.3,0,0.5,0.2s0.2,0.3,0.2,0.5V4c0,0.2,0,0.3-0.2,0.5 c-0.2,0.2-0.3,0.2-0.3,0.2h-7v13.5c0,0.2,0,0.3-0.2,0.5c-0.2,0.2-0.3,0.2-0.5,0.2h-3.7c-0.2,0-0.3,0-0.5-0.2 c-0.2-0.2-0.2-0.3-0.2-0.3V0.8H188.9z"></path> <path class="st0" d="M226.1,18c0,0.2,0,0.3-0.2,0.3c-0.2,0.2-0.2,0.2-0.5,0.2h-3.6c-0.2,0-0.3,0-0.5-0.2c-0.2-0.2-0.2-0.2-0.2-0.5 V7.2c-1.1,1.9-2.2,3.6-3.3,5.4c-1.1,1.9-2.2,3.6-3.3,5.4c-0.2,0.2-0.2,0.2-0.3,0.3c-0.2,0.2-0.2,0.2-0.3,0.2h-4 c-0.2,0-0.3,0-0.5-0.2c-0.2,0-0.2-0.2-0.2-0.3V0.8c0-0.2,0-0.3,0.2-0.5c0.2-0.2,0.3-0.2,0.5-0.2h3.6c0.2,0,0.3,0,0.3,0.2 s0.2,0.2,0.2,0.3v10c1.1-1.7,2.2-3.4,3.1-5c1.1-1.7,2-3.3,3.1-5c0.2-0.2,0.2-0.3,0.3-0.3c0.2,0,0.3-0.2,0.3-0.2h4 c0.2,0,0.3,0,0.5,0.2c0.2,0.2,0.2,0.3,0.2,0.3L226.1,18L226.1,18z"></path> </g> </svg> 