<?xml version="1.0" encoding="UTF-8"?> <svg xmlns="http://www.w3.org/2000/svg" viewBox="0 0 410.63 273.87"> <title>sky</title> <path d="M114.2,233.19c-.82.81.81,2.53,1.45,1.67a.14.14,0,0,0,0-.17c-.21-.24-.58-.21-.83-.42s-.28-.66-.4-1a.12.12,0,0,0-.2-.05Z" fill="#262727"></path> <path d="M115.33,234.62a1.49,1.49,0,0,0-.21,1.3.24.24,0,0,0,.43.06,1.48,1.48,0,0,0,0-1.33.15.15,0,0,0-.24,0Z" fill="#262727"></path> <path d="M115.38,235.88v0a.08.08,0,0,0-.15,0l0,0c-.08.16.22.2.18,0Z" fill="#262727"></path> <path d="M115.48,235.92c-.47-.53-1.25,0-1.34.58a.89.89,0,0,0,1.15,1c.32-.11.3-.66-.09-.64s-.49-.12-.29-.4.28-.18.49-.24a.17.17,0,0,0,.07-.28Z" fill="#262727"></path> <path d="M115.27,237.12a2.8,2.8,0,0,0-.39,1.27l.37-.21a1,1,0,0,0-1.3.63,1,1,0,0,0,.94,1.19c.41.05.41-.6,0-.65s-.3-.77.2-.59a.3.3,0,0,0,.37-.21,3,3,0,0,0,.07-1.36c0-.09-.17-.16-.25-.06Z" fill="#262727"></path> <path d="M115,239.65c-.45.14-.38,1-.43,1.35l.29-.22c-.59,0-1.23.35-1.23,1a.83.83,0,0,0,.33.66c.34.26.57,0,.93.09s.42-.53.08-.62c-.18,0-.26,0-.43,0q-.52-.07-.08-.43a.8.8,0,0,1,.39-.1.31.31,0,0,0,.3-.3c0-.11.29-1.57-.16-1.43Z" fill="#262727"></path> <path d="M114.85,242c-.41.19-.4.92-.48,1.31l.37-.21a1,1,0,1,0,0,1.87.33.33,0,0,0-.18-.64.35.35,0,1,1,0-.66.3.3,0,0,0,.37-.21c.06-.4.32-1.14,0-1.46a.08.08,0,0,0-.09,0Z" fill="#262727"></path> <path d="M114.41,244.9c0,.18-.08.37-.11.55l.37-.21a1.27,1.27,0,0,0-1.71,1.33c0,.34.59.31.66,0,.1-.47.3-.89.89-.75a.31.31,0,0,0,.38-.29c0-.19,0-.37.05-.56a.28.28,0,0,0-.54-.07Z" fill="#262727"></path> <path d="M105.14,232.32a1.4,1.4,0,0,1-.42.48c-.15.1-.35.1-.49.2a.35.35,0,0,0-.13.48.36.36,0,0,0,.4.16,1.39,1.39,0,0,0,1.09-1.13.25.25,0,0,0-.45-.19Z" fill="#262727"></path> <path d="M104.21,233.23a2.07,2.07,0,0,0-.35,1.18c0,.18.17.3.32.32s.3.16.21.33-.07.23-.23.22a1.22,1.22,0,0,0-.27.1.28.28,0,0,0-.06.44c.44.44,1.16,0,1.28-.56a1,1,0,0,0-.93-1.16l.32.32a1.93,1.93,0,0,0-.08-1.16.13.13,0,0,0-.21,0Z" fill="#262727"></path> <path d="M103.83,235.74a7.67,7.67,0,0,0-.22,1.28.35.35,0,0,0,.33.43c.4,0,.42.34.14.55-.11.08-.21.09-.31.2a.29.29,0,0,0,0,.4l.06.06a.39.39,0,0,0,.37.1,1.06,1.06,0,0,0,.82-1.13,1,1,0,0,0-1.09-.87l.33.43a2,2,0,0,0-.1-1.46c-.07-.1-.27-.14-.33,0Z" fill="#262727"></path> <path d="M103.93,238.21c-.34.35-.3,1-.36,1.48a.35.35,0,0,0,.35.35c.39,0,.34.48,0,.4a.39.39,0,0,0-.21.75,1,1,0,0,0,1.27-.75,1,1,0,0,0-1-1.1l.35.35c0-.47.09-1.09-.21-1.48a.09.09,0,0,0-.12,0Z" fill="#262727"></path> <path d="M103.44,241a6.84,6.84,0,0,0-.14.82c0,.19.08.45.32.42s.69.4.26.54c-.19.07-.35,0-.55.08a.3.3,0,0,0-.14.34l0,.07a.39.39,0,0,0,.27.27,1.08,1.08,0,0,0,1.32-.92,1,1,0,0,0-1.26-1l.42.32a6.79,6.79,0,0,0,0-.83.28.28,0,0,0-.55-.08Z" fill="#262727"></path> <path d="M103.31,243c-.27.24-.22.59-.29.92a.34.34,0,0,0,.24.41c.58.13.75.51.4,1s.29.72.59.46a1.22,1.22,0,0,0-1-2.09l.43.32c0-.37.08-.71-.16-1a.15.15,0,0,0-.21,0Z" fill="#262727"></path> <path d="M103.95,245.86a5.7,5.7,0,0,0,1.89.24.34.34,0,0,0,.32-.42q.29-.44.53-.1a.44.44,0,0,1,.26.39.36.36,0,0,0,.69-.19,1.31,1.31,0,0,0-1.39-1,.84.84,0,0,0-.73,1.12l.32-.42a5.54,5.54,0,0,0-1.84,0c-.16.05-.23.31-.05.39Z" fill="#262727"></path> <path d="M107.28,246c.39.51,1.36.48,2,.56a.36.36,0,0,0,.43-.43q.51-.55.53-.11a.3.3,0,0,1,0,.27.33.33,0,0,0,.63.17l0-.15a.21.21,0,0,0-.2-.26h-.16l.28.49a1,1,0,0,0-.59-1.47A1,1,0,0,0,109,246.2l.44-.34c-.57-.1-1.57-.46-2.08-.1a.16.16,0,0,0-.06.22Z" fill="#262727"></path> <path d="M110.53,246.26l-.07,0a.13.13,0,0,0,0,.18c.25.41.92.31,1.35.34s1.25.29,1.57-.12a.19.19,0,0,0,0-.22c-.26-.44-.94-.3-1.39-.32s-1.22-.23-1.54.16h.18l-.07-.06Z" fill="#262727"></path> <path d="M105.17,232.41a1.73,1.73,0,0,0,1.48.47.32.32,0,0,0,0-.65,4.34,4.34,0,0,0-1.36-.12.2.2,0,0,0-.12.29Z" fill="#262727"></path> <path d="M106.65,232.45c-.52,1.21,1.45,1.74,1.79.47a.32.32,0,0,0-.61-.17.37.37,0,0,1-.61.2.76.76,0,0,1-.19-.45.21.21,0,0,0-.39-.05Z" fill="#262727"></path> <path d="M108,232.9a5.16,5.16,0,0,0,2,.33c.43,0,.43-.64,0-.68a5,5,0,0,0-2,0,.19.19,0,0,0,0,.35Z" fill="#262727"></path> <path d="M110.11,232.87a1,1,0,0,0,1,1.47.9.9,0,0,0,.74-1.39c-.25-.37-.86,0-.6.35s-.17.44-.4.29-.28-.46-.37-.68-.25-.2-.33,0Z" fill="#262727"></path> <path d="M111.45,233.26a3.18,3.18,0,0,0,1.5.31,3,3,0,0,0,1.53,0c.17-.08.12-.3,0-.39a3.17,3.17,0,0,0-1.53-.27,3,3,0,0,0-1.5,0c-.14.06-.1.24,0,.31Z" fill="#262727"></path> <path d="M106.08,243.63a6.39,6.39,0,0,0,2.76.56,9.83,9.83,0,0,0,3.2.17.28.28,0,0,0,.07-.51,8.56,8.56,0,0,0-2.82-.46,7.28,7.28,0,0,0-3.17-.06.17.17,0,0,0,0,.31Z" fill="#262727"></path> <path d="M112.74,235.87a34.84,34.84,0,0,0-1,8c0,.41.66.51.72.1a35,35,0,0,0,.51-8.07.12.12,0,0,0-.23,0Z" fill="#262727"></path> <path d="M106.33,235.42a9.53,9.53,0,0,0-.46,3.38l-.27,4.54c0,.48.73.48.76,0q.11-2.12.22-4.23a10.36,10.36,0,0,0-.06-3.66c0-.08-.15-.12-.19,0Z" fill="#262727"></path> <path d="M106.48,234.92c2.1.42,4.26.54,6.39.74l-.39-.39a7.24,7.24,0,0,0,0,2.52.17.17,0,0,0,.31,0,7.47,7.47,0,0,0,.51-2.56c0-.22-.2-.38-.39-.39-2.11-.14-4.23-.37-6.35-.3-.19,0-.25.3,0,.34Z" fill="#262727"></path> <path d="M106.32,234.69a2.67,2.67,0,0,0-.19,1.51,3.43,3.43,0,0,0,.15,1.52.12.12,0,0,0,.21,0,3.45,3.45,0,0,0,.17-1.52,2.65,2.65,0,0,0-.17-1.51.1.1,0,0,0-.17,0Z" fill="#262727"></path> <path d="M107.11,243.45c0-.83,1.38-1.21,1.54-2.08a2.77,2.77,0,0,0-.09-1.11c-.11-.49-.45-2.7.73-2.43l.93,1-.09.33c0,.21-.13.43-.16.65a1.72,1.72,0,0,0,.06.86,2.22,2.22,0,0,0,.61.76,2.22,2.22,0,0,1,.66,1.89.32.32,0,0,0,.54.22c1.44-1.65-1-2.58-.82-4.13.08-.74.34-1.27-.21-1.92a1.73,1.73,0,0,0-1.64-.58c-1.45.26-1.91,1.79-1.7,3.07a1.83,1.83,0,0,1-.39,2c-.17.24-.41.32-.51.63a.74.74,0,0,0,.38,1,.11.11,0,0,0,.16-.09Z" fill="#262727"></path> <path d="M111.76,235.49a5.1,5.1,0,0,0-.42,2.32l-.24,3c0,.52.84.65.92.12a31.05,31.05,0,0,0,.38-5.1.49.49,0,0,0-1-.13l-.1.27.6-.34a8.05,8.05,0,0,0-4.09-.2.57.57,0,0,0-.41.54c0,.4,0,.8,0,1.21a.58.58,0,0,0,1.15,0c0-.4,0-.8,0-1.21l-.41.54a6.13,6.13,0,0,1,3.53.06.5.5,0,0,0,.6-.34l.1-.27-1-.13a30.34,30.34,0,0,1-.31,4.86l.92.12.2-3a4.92,4.92,0,0,0-.09-2.32c-.07-.16-.3-.13-.38,0Z" fill="#262727"></path> <path d="M110.68,235.76c-.21.5-.41,1-.62,1.51-.14.34.28.72.6.6a1.71,1.71,0,0,0,1.13-1.29l-1.09-.15c0,.87,0,1.73.05,2.6a5,5,0,0,0,.29,2.06c.17.35.63.19.74-.1a5.31,5.31,0,0,0,.13-2.15c0-.8-.07-1.61-.11-2.41,0-.59-1-.79-1.09-.15a.79.79,0,0,1-.44.68l.72.56c.07-.51.15-1,.22-1.54,0-.3-.4-.58-.55-.23Z" fill="#262727"></path> <path d="M108.53,235.07a1.19,1.19,0,0,0-2,.38,3.31,3.31,0,0,0-.06,2,11.39,11.39,0,0,1-.2,4.06.47.47,0,0,0,.9.25,15.33,15.33,0,0,0,.77-3.84H107a12.1,12.1,0,0,1,0,2.52,7.89,7.89,0,0,1-.91,2.27c-.14.3.16.68.48.48,1.69-1,1.53-3.59,1.4-5.27a.47.47,0,0,0-.94,0,12.38,12.38,0,0,1-.73,3.59l.9.25a12.32,12.32,0,0,0,.34-2.81,11.32,11.32,0,0,0-.08-1.21c0-.32-.49-2.85.73-2.23.26.13.54-.2.32-.41Z" fill="#262727"></path> <path d="M107,235.74a1.4,1.4,0,0,0,.07,1.14.22.22,0,0,0,.38,0,1.39,1.39,0,0,0,.07-1.14.27.27,0,0,0-.52,0Z" fill="#262727"></path> <path d="M108.21,241.9a3.35,3.35,0,0,1,.24-.6h-.58a11.8,11.8,0,0,0,1.27,1.93.47.47,0,0,0,.81-.47,1.4,1.4,0,0,0-.2-.29.37.37,0,0,0-.62.16,1.47,1.47,0,0,0-.06.36l.87-.24a12.31,12.31,0,0,0-1.55-1.87.34.34,0,0,0-.57.33,3.44,3.44,0,0,1,.05.63.17.17,0,0,0,.32,0Z" fill="#262727"></path> <path d="M110.58,240.21c-.41.52-.82,1-1.18,1.6a3.23,3.23,0,0,0-.74,1.66.29.29,0,0,0,.43.25,3,3,0,0,0,1-1.34,19.05,19.05,0,0,0,.88-1.83c.11-.26-.22-.61-.44-.34Z" fill="#262727"></path> <path d="M119.45,231.88c-1.6,13.76-2.64,27.68-3.63,41.5,0,.44.64.43.68,0,1.37-13.78,2.71-27.67,3.47-41.5,0-.33-.48-.32-.51,0Z" fill="#262727"></path> <path d="M267.56,133.74c-.31.7.88,1.65,1.34.95a.1.1,0,0,0,0-.14c-.19-.09-.36,0-.55-.1s-.44-.42-.59-.7a.09.09,0,0,0-.16,0Z" fill="#262727"></path> <path d="M268.64,134.55a1.18,1.18,0,0,0,.1,1c.09.17.31.07.33-.09a1.12,1.12,0,0,0-.25-.9.11.11,0,0,0-.18,0Z" fill="#262727"></path> <path d="M268.91,135.44l0,0a.06.06,0,0,0-.11,0v0c0,.13.19.1.13,0Z" fill="#262727"></path> <path d="M269,135.45a.59.59,0,0,0-.85.55.67.67,0,0,0,.93.65c.3-.11.18-.58-.13-.48q-.34-.33-.09-.43l.14-.08a.12.12,0,0,0,0-.21Z" fill="#262727"></path> <path d="M269,136.37a2.55,2.55,0,0,0,0,1l.22-.22a.69.69,0,1,0,0,1.38.25.25,0,0,0,.23-.3.17.17,0,0,0,0-.06.24.24,0,0,0-.21-.12q-.42.08,0-.46a.22.22,0,0,0,.22-.22,2.65,2.65,0,0,0-.21-1,.11.11,0,0,0-.2,0Z" fill="#262727"></path> <path d="M269.31,138.21c-.26.25-.08.72,0,1l.17-.22c-.42.14-.83.5-.67,1a.6.6,0,0,0,.39.39c.26.08.35-.1.57-.12s.31-.47,0-.47l-.22,0-.08,0q-.32-.36.13-.44a.23.23,0,0,0,.16-.28c-.05-.32,0-.82-.33-1a.06.06,0,0,0-.07,0Z" fill="#262727"></path> <path d="M269.67,139.91a1.54,1.54,0,0,0-.08,1l.22-.22a.76.76,0,0,0-.74,1,.77.77,0,0,0,1.13.38.24.24,0,0,0-.25-.42.22.22,0,0,1-.28,0q-.36-.1.14-.47c.11,0,.23-.09.22-.22,0-.35,0-.77-.27-1a.06.06,0,0,0-.08,0Z" fill="#262727"></path> <path d="M270.05,141.88c-.2.18-.14.32-.12.6l.22-.22a1,1,0,0,0-1,1.21c.08.26.52.23.49-.07s.08-.68.5-.7a.23.23,0,0,0,.22-.28c0-.26,0-.41-.25-.55a.06.06,0,0,0-.07,0Z" fill="#262727"></path> <path d="M260.92,134.86c-.11.36-.42.45-.57.76a.17.17,0,0,0,.1.25c.52.19.84-.55.84-1a.19.19,0,0,0-.37,0Z" fill="#262727"></path> <path d="M260.44,135.65a1.56,1.56,0,0,0,0,.85c0,.12.1.25.23.23.2.23.2.39,0,.48a.21.21,0,0,0,0,.38c.42.13.79-.3.76-.71a.72.72,0,0,0-.89-.6l.29.16a1.57,1.57,0,0,0-.27-.81.1.1,0,0,0-.15,0Z" fill="#262727"></path> <path d="M260.64,137.55a8.21,8.21,0,0,0,.09.92c0,.12.11.27.25.25.29,0,.43.08.25.38,0,.06-.12.12-.16.18a.21.21,0,0,0,.13.31c1,.25.89-1.8-.27-1.36l.32.24a1.55,1.55,0,0,0-.35-1,.14.14,0,0,0-.24.1Z" fill="#262727"></path> <path d="M261.18,139.26a1.92,1.92,0,0,0,0,1.06.26.26,0,0,0,.33.25l0,.29c-.37,0-.37.58,0,.58a.7.7,0,1,0-.18-1.36l.32.18a2,2,0,0,0-.42-1,.07.07,0,0,0-.1,0Z" fill="#262727"></path> <path d="M261.49,141.16c-.21.24-.12.48-.08.79,0,.14.14.3.31.23.45-.17.17.36-.05.47a.22.22,0,0,0,0,.38c.46.3,1-.24,1-.73a.76.76,0,0,0-1-.59l.3.17c-.05-.3,0-.57-.3-.73a.07.07,0,0,0-.09,0Z" fill="#262727"></path> <path d="M261.65,142.82a1.3,1.3,0,0,0,0,.72.25.25,0,0,0,.25.25c.42,0,.62.25.47.63s.35.48.51.21a.9.9,0,0,0-1-1.33l.3.17a1.37,1.37,0,0,0-.28-.67.11.11,0,0,0-.17,0Z" fill="#262727"></path> <path d="M262.63,144.71a4.2,4.2,0,0,0,1.4-.18.25.25,0,0,0,.15-.36c.08-.24.2-.3.36-.17a.33.33,0,0,1,.26.23.26.26,0,0,0,.46-.27,1,1,0,0,0-1.13-.5.63.63,0,0,0-.37,1l.15-.36a4.07,4.07,0,0,0-1.3.37c-.1.06-.11.27,0,.29Z" fill="#262727"></path> <path d="M265,144.17c.38.29,1.06.09,1.5,0a.26.26,0,0,0,.22-.39q.46-.38.4,0a.24.24,0,0,0,.48,0v-.11a.16.16,0,0,0-.2-.15l-.11,0,.3.3a.74.74,0,0,0-.75-.94.77.77,0,0,0-.59,1.06l.25-.33c-.43,0-1.2,0-1.5.32a.12.12,0,0,0,0,.17Z" fill="#262727"></path> <path d="M267.4,143.76l0,0a.1.1,0,0,0,0,.15c.32.19.64,0,1,0s.84,0,1.1-.36a.13.13,0,0,0,0-.21c-.36-.19-.73,0-1.11.07a2.7,2.7,0,0,0-.77.17s-.2.12-.15.14Z" fill="#262727"></path> <path d="M261,134.91c.36.21,1.06.23,1.27-.17a.12.12,0,0,0,0-.16,1.58,1.58,0,0,0-1.2.06.15.15,0,0,0,0,.27Z" fill="#262727"></path> <path d="M262,134.68c-.09,1,1.32.88,1.37,0,0-.31-.44-.3-.47,0q-.5.34-.61,0c-.07-.16-.28-.06-.29.08Z" fill="#262727"></path> <path d="M263.09,134.7a2.59,2.59,0,0,0,1-.05c.31-.05.55,0,.68-.31a.09.09,0,0,0,0-.11c-.2-.2-.33-.14-.61-.09a3,3,0,0,0-1.06.3.14.14,0,0,0,0,.26Z" fill="#262727"></path> <path d="M264.58,134.28a.77.77,0,0,0,.94.87.67.67,0,0,0,.29-1.14c-.24-.23-.61.14-.37.37q0,.53-.42.14l-.2-.27c-.06-.08-.22-.09-.24,0Z" fill="#262727"></path> <path d="M265.61,134.31a2.2,2.2,0,0,0,1,0,2.77,2.77,0,0,0,1.15-.27.17.17,0,0,0,0-.3,2.4,2.4,0,0,0-1,.08,2.51,2.51,0,0,0-1.13.3.13.13,0,0,0,0,.24Z" fill="#262727"></path> <path d="M263.73,142.71a4.72,4.72,0,0,0,2.08-.12,7.21,7.21,0,0,0,2.31-.48.21.21,0,0,0,0-.38,6.31,6.31,0,0,0-2.1.2,5.35,5.35,0,0,0-2.27.55.13.13,0,0,0,0,.23Z" fill="#262727"></path> <path d="M267,135.93a25.65,25.65,0,0,0,.79,5.9c.07.29.57.24.53-.07a25.76,25.76,0,0,0-1.15-5.85.09.09,0,0,0-.17,0Z" fill="#262727"></path> <path d="M262.36,136.81a7,7,0,0,0,.31,2.5l.66,3.29c.07.35.61.2.54-.15l-.64-3.06a7.62,7.62,0,0,0-.73-2.6c0-.05-.13-.05-.14,0Z" fill="#262727"></path> <path d="M262.38,136.43c1.58-.1,3.14-.42,4.7-.67l-.36-.2a5.34,5.34,0,0,0,.45,1.8.13.13,0,0,0,.23,0,5.5,5.5,0,0,0-.12-1.92.3.3,0,0,0-.36-.2c-1.53.3-3.09.54-4.58,1-.13,0-.11.26,0,.25Z" fill="#262727"></path> <path d="M262.22,136.29a2.08,2.08,0,0,0,.15,1.11,2.74,2.74,0,0,0,.39,1.05.09.09,0,0,0,.15,0,2.75,2.75,0,0,0-.16-1.12,2.06,2.06,0,0,0-.4-1,.07.07,0,0,0-.12,0Z" fill="#262727"></path> <path d="M264.43,142.4c-.14-.6.77-1.14.7-1.82a2.47,2.47,0,0,0-.34-.85,1.73,1.73,0,0,1-.3-1q.68-1.48,1.09-.55c.34.51,0,1.13.4,1.64a1.72,1.72,0,0,0,.61.44,1.6,1.6,0,0,1,.8,1.21.23.23,0,0,0,.42.05,1.18,1.18,0,0,0-.06-1.3,1.66,1.66,0,0,0-.52-.48c-.51-.32-.7-.32-.78-1-.06-.54,0-1-.51-1.33a1.27,1.27,0,0,0-1.17-.15,1.8,1.8,0,0,0-.74,2.55l.27.5a.72.72,0,0,1-.14.91c-.1.24-.28.32-.29.61a.55.55,0,0,0,.46.64.08.08,0,0,0,.1-.1Z" fill="#262727"></path> <path d="M266.25,135.84a3.77,3.77,0,0,0,.14,1.74l.39,2.19c.07.38.72.3.68-.09a23,23,0,0,0-.69-3.71.36.36,0,0,0-.7.1l0,.21.36-.36a5.93,5.93,0,0,0-3,.63.42.42,0,0,0-.19.46c.06.29.12.58.19.87a.43.43,0,0,0,.82-.23c-.06-.29-.14-.58-.22-.86l-.19.46a4.54,4.54,0,0,1,2.54-.62.37.37,0,0,0,.36-.36l0-.21-.7.1a22.35,22.35,0,0,1,.69,3.52l.68-.09L267,137.4a3.62,3.62,0,0,0-.5-1.64c-.08-.1-.24,0-.27.07Z" fill="#262727"></path> <path d="M265.53,136.24c-.05.37-.09.73-.15,1.1s.24.61.53.41a1.26,1.26,0,0,0,.57-1.14l-.8.11c.17.62.34,1.23.52,1.85a3.66,3.66,0,0,0,.6,1.41c.19.22.48,0,.51-.21a3.93,3.93,0,0,0-.31-1.56c-.17-.57-.35-1.14-.53-1.7s-.83-.37-.8.11a.58.58,0,0,1-.19.57l.62.26c0-.38-.08-.76-.13-1.14,0-.22-.4-.33-.44-.06Z" fill="#262727"></path> <path d="M263.87,136.15a.88.88,0,0,0-1.32.64,2.43,2.43,0,0,0,.33,1.41,8.41,8.41,0,0,1,.63,2.94.35.35,0,0,0,.69,0,11.35,11.35,0,0,0-.18-2.89l-.67.18a6.18,6.18,0,0,1,.23,3.59c-.05.23.26.46.44.25,1-1.14.44-2.77,0-4a.35.35,0,0,0-.67.18,9.18,9.18,0,0,1,.15,2.7h.69a9.08,9.08,0,0,0-.29-2.07,10.05,10.05,0,0,0-.4-1.13c0-.12-.82-1.67.22-1.44a.19.19,0,0,0,.15-.35Z" fill="#262727"></path> <path d="M262.88,136.92a1.06,1.06,0,0,0,.27.8.16.16,0,0,0,.27-.07,1.06,1.06,0,0,0-.16-.83.2.2,0,0,0-.37.1Z" fill="#262727"></path> <path d="M264.92,141.08a3.38,3.38,0,0,1,.06-.47l-.42.11a10.57,10.57,0,0,0,1.27,1.14.34.34,0,0,0,.49-.49c-.35-.38-.67-.12-.58.33l.51-.39a10.54,10.54,0,0,0-1.39-1,.25.25,0,0,0-.34.34,3.64,3.64,0,0,1,.16.44.12.12,0,0,0,.24,0Z" fill="#262727"></path> <path d="M266.3,139.43c-.2.45-.39.9-.54,1.37a2.43,2.43,0,0,0-.21,1.32.21.21,0,0,0,.35.09,2.26,2.26,0,0,0,.49-1.14,14.86,14.86,0,0,0,.29-1.48c0-.21-.27-.4-.38-.16Z" fill="#262727"></path> <path d="M329.41,215.27c-.37.35,0,.86.45.93a.22.22,0,0,0,.24-.1l0-.06a.1.1,0,0,0,0-.11.57.57,0,0,0-.16-.15.43.43,0,0,1-.35-.37.65.65,0,0,0-.07-.13.09.09,0,0,0-.14,0Z" fill="#262727"></path> <path d="M329.92,215.88a.6.6,0,0,0-.11.63.18.18,0,0,0,.34,0,.58.58,0,0,0,0-.61.12.12,0,0,0-.18,0Z" fill="#262727"></path> <path d="M330,216.45v0a.06.06,0,0,0-.09,0h0c-.11.13.2.16.11,0Z" fill="#262727"></path> <path d="M330.07,216.45c-.43-.56-1.21.7-.28.85.32.05.46-.43.14-.49a.17.17,0,0,1,.12-.16.13.13,0,0,0,0-.2Z" fill="#262727"></path> <path d="M329.91,217a1.15,1.15,0,0,0-.2.55l.27-.16a.51.51,0,1,0-.28,1c.3.11.42-.36.13-.47l0-.08a.23.23,0,0,0,.28-.21,1.13,1.13,0,0,0,0-.58.11.11,0,0,0-.2,0Z" fill="#262727"></path> <path d="M329.86,218.12h0a.21.21,0,0,0-.2.15c0,.17,0,.34-.07.51l.17-.22c-.32,0-.64.27-.56.64s.37.31.65.32a.24.24,0,0,0,.06-.47c-.1,0-.35,0,0-.06a.23.23,0,0,0,.17-.22c0-.15,0-.3,0-.45a.21.21,0,0,0-.15-.2Z" fill="#262727"></path> <path d="M329.82,219.17c-.23.16-.22.29-.27.58l.21-.16c-.86-.11-.78,1.24.1,1,.32-.08.18-.52-.13-.48l0-.1a.23.23,0,0,0,.22-.22c0-.28.07-.41-.1-.63a.05.05,0,0,0-.07,0Z" fill="#262727"></path> <path d="M329.78,220.37h-.06a.21.21,0,0,0-.15.15l0,.16.28-.16a.66.66,0,0,0-.88.66c0,.28.44.36.5.07s.11-.27.32-.28a.23.23,0,0,0,.23-.23v-.17a.21.21,0,0,0-.11-.19s-.07,0-.11,0Z" fill="#262727"></path> <path d="M325.34,215c-.14.17-.35.21-.45.4a.18.18,0,0,0,.06.23l.07.05a.26.26,0,0,0,.26,0,.73.73,0,0,0,.4-.49c.05-.19-.21-.36-.34-.2Z" fill="#262727"></path> <path d="M325,215.4a.72.72,0,0,0-.2.49.24.24,0,0,0,.17.29c.15,0-.08.11-.1.13a.21.21,0,0,0,0,.36c.64.36,1-.83.22-.95l.17.23a.76.76,0,0,0-.11-.53.1.1,0,0,0-.15,0Z" fill="#262727"></path> <path d="M324.81,216.55a2.53,2.53,0,0,0-.12.53.26.26,0,0,0,.18.31c.15,0,0,.13-.05.17a.22.22,0,0,0,0,.34l.08,0a.29.29,0,0,0,.29,0c.47-.33.36-1.08-.29-1.05l.26.26a.88.88,0,0,0-.12-.64.15.15,0,0,0-.26,0Z" fill="#262727"></path> <path d="M324.94,217.62c-.21.15-.2.36-.23.62a.27.27,0,0,0,.25.33l0-.05c-.37,0-.37.55,0,.59a.53.53,0,1,0,0-1.05l.26.26c0-.24,0-.51-.2-.68a.07.07,0,0,0-.08,0Z" fill="#262727"></path> <path d="M324.66,218.92c0,.12,0,.24-.05.36a.25.25,0,0,0,.25.25c.17,0-.12.08-.11.07a.23.23,0,0,0-.1.38l.06.07a.29.29,0,0,0,.28.07.55.55,0,0,0-.14-1.09l.25.25c0-.1,0-.2,0-.3,0-.25-.41-.32-.45-.06Z" fill="#262727"></path> <path d="M324.73,219.74c-.17.13-.16.22-.21.43a.26.26,0,0,0,.18.31c.14,0,.18.1.13.27s.23.58.44.34a.65.65,0,0,0-.57-1.1l.32.24c0-.2,0-.34-.15-.48a.12.12,0,0,0-.14,0Z" fill="#262727"></path> <path d="M325,221.09a2.33,2.33,0,0,0,.87.13.25.25,0,0,0,.24-.32l.16.18c.15.31.62,0,.46-.27-.29-.57-1.28-.54-1.11.22l.24-.32a2.26,2.26,0,0,0-.83.08c-.11,0-.18.23,0,.29Z" fill="#262727"></path> <path d="M326.48,221.07c.17.32.63.28,1,.31a.26.26,0,0,0,.26-.26h0c0,.25.31.46.45.19.42-.86-1.06-1.13-1-.18l.33-.25c-.33-.05-.75-.21-1,.06a.12.12,0,0,0,0,.14Z" fill="#262727"></path> <path d="M327.9,221.27a1.19,1.19,0,0,0,1.33.08.14.14,0,0,0,0-.21,1.17,1.17,0,0,0-1.35,0,.1.1,0,0,0,0,.14Z" fill="#262727"></path> <path d="M325.39,215.12a.78.78,0,0,0,.6.24.25.25,0,0,0,.22-.13l0-.07a.11.11,0,0,0,0-.12.71.71,0,0,0-.8-.18.15.15,0,0,0-.07.25Z" fill="#262727"></path> <path d="M326,215c-.28.67.7.91.95.25.11-.29-.34-.4-.46-.13-.12,0-.2,0-.21-.12a.16.16,0,0,0-.27,0Z" fill="#262727"></path> <path d="M326.65,215.29a1.59,1.59,0,0,0,.82.17.25.25,0,0,0,.22-.12l0-.07a.09.09,0,0,0,0-.09l0-.09a.25.25,0,0,0-.22-.12,1.54,1.54,0,0,0-.82.09.14.14,0,0,0,0,.24Z" fill="#262727"></path> <path d="M327.57,215.17a.52.52,0,0,0,.5.77.51.51,0,0,0,.4-.78c-.16-.3-.62,0-.45.27l-.21-.26a.14.14,0,0,0-.24,0Z" fill="#262727"></path> <path d="M328.19,215.41a1.71,1.71,0,0,0,1.37.14.17.17,0,0,0,0-.31,1.7,1.7,0,0,0-1.41-.06.14.14,0,0,0,0,.23Z" fill="#262727"></path> <path d="M325.94,220a2,2,0,0,0,1.16.26,3.73,3.73,0,0,0,1.53,0,.16.16,0,0,0,0-.3,3.23,3.23,0,0,0-1.37-.2,2.29,2.29,0,0,0-1.34.07.1.1,0,0,0,0,.15Z" fill="#262727"></path> <path d="M328.8,216.49a7.76,7.76,0,0,0-.24,1.65,18.75,18.75,0,0,0-.14,1.91c0,.23.38.3.42.06a12.28,12.28,0,0,0,.09-3.61c0-.07-.11-.06-.13,0Z" fill="#262727"></path> <path d="M326,216.37a3.21,3.21,0,0,0-.2,1.51q0,1-.07,2a.22.22,0,0,0,.44,0l0-2a3.19,3.19,0,0,0-.11-1.51.06.06,0,0,0-.11,0Z" fill="#262727"></path> <path d="M326,216.18a22,22,0,0,0,2.84.28l-.23-.23a2.46,2.46,0,0,0,0,1.12.1.1,0,0,0,.18,0,2.52,2.52,0,0,0,.23-1.15.23.23,0,0,0-.23-.23,21.89,21.89,0,0,0-2.82,0c-.1,0-.15.17,0,.2Z" fill="#262727"></path> <path d="M325.95,216a1.82,1.82,0,0,0,0,1.35c0,.06.11,0,.13,0a1.82,1.82,0,0,0,0-1.34.06.06,0,0,0-.1,0Z" fill="#262727"></path> <path d="M326.43,219.94c.08-.37.55-.47.68-.83s-.31-1.64.15-1.61l.42.31,0,.15c0,.09-.05.19-.06.29a.83.83,0,0,0,0,.41,1.16,1.16,0,0,0,.29.36,1.2,1.2,0,0,1,.33.78.18.18,0,0,0,.31.13.71.71,0,0,0,.18-.81c-.12-.34-.63-.52-.61-.87s.2-.6,0-.92a.85.85,0,0,0-.77-.4c-.79,0-1,.9-.87,1.55a.66.66,0,0,1,0,.45c-.07.26-.09.16-.21.33a.8.8,0,0,0-.19.3.34.34,0,0,0,.25.44.06.06,0,0,0,.08,0Z" fill="#262727"></path> <path d="M328.35,216.33a1.82,1.82,0,0,0-.19,1l-.07,1.35c0,.36.5.33.54,0a13.49,13.49,0,0,0,.1-2.21.28.28,0,0,0-.55-.08l0,.12.35-.2a3.75,3.75,0,0,0-1.85,0,.33.33,0,0,0-.24.31c0,.18,0,.36,0,.53a.33.33,0,0,0,.67,0c0-.18,0-.36,0-.53l-.24.31a2.59,2.59,0,0,1,1.53,0,.29.29,0,0,0,.35-.2l0-.12-.55-.08a14,14,0,0,1-.08,2.21h.54q0-.68,0-1.35a1.75,1.75,0,0,0-.1-1,.13.13,0,0,0-.22,0Z" fill="#262727"></path> <path d="M327.87,216.45l-.26.61c-.08.2.06.52.32.42a.83.83,0,0,0,.54-.62l-.63-.08a4.69,4.69,0,0,0,.23,2.09.24.24,0,0,0,.41,0,4.56,4.56,0,0,0,0-2.09c0-.33-.56-.46-.63-.08a.43.43,0,0,1-.2.32l.49.2c0-.22,0-.44.05-.66s-.26-.25-.32-.09Z" fill="#262727"></path> <path d="M327,216.18a.57.57,0,0,0-.94.19,1.34,1.34,0,0,0,0,.82,5.1,5.1,0,0,1,0,1.86.27.27,0,0,0,.52.14,7,7,0,0,0,.3-1.73h-.55a4.51,4.51,0,0,1,0,1.28,8.11,8.11,0,0,1-.35.88.21.21,0,0,0,.3.23c.79-.41.68-1.66.6-2.39a.27.27,0,0,0-.55,0A5.37,5.37,0,0,1,326,219l.52.14a5.54,5.54,0,0,0,.12-1.27c0-.14-.24-1.68.16-1.51.15.06.32-.11.19-.24Z" fill="#262727"></path> <path d="M326.23,216.5a.55.55,0,0,0,.05.53.13.13,0,0,0,.22,0,.55.55,0,0,0,0-.53.16.16,0,0,0-.3,0Z" fill="#262727"></path> <path d="M326.91,219.23,327,219h-.34a6.78,6.78,0,0,0,.57.85c.29.39.73-.19.37-.37l-.11-.05a.14.14,0,0,0-.18,0l-.08.1.42-.05a6.76,6.76,0,0,0-.69-.76.2.2,0,0,0-.33.19l.05.27a.1.1,0,0,0,.19,0Z" fill="#262727"></path> <path d="M327.89,218.42a2.75,2.75,0,0,0-.82,1.49.17.17,0,0,0,.25.14,2.74,2.74,0,0,0,.85-1.48c.05-.15-.17-.29-.27-.16Z" fill="#262727"></path> <path d="M151,165c-.54,2.49.18,5.33.69,7.78a37.64,37.64,0,0,0,2.6,8.6c.21.43.85.12.74-.31-.64-2.69-1.61-5.28-2.2-8s-.61-5.59-1.65-8.08c0-.08-.16-.11-.19,0Z" fill="#262727"></path> <path d="M155.22,140.87c-3.36,4.25-4.29,12.51-3.76,17.8a.41.41,0,0,0,.81,0,95.7,95.7,0,0,1,1.18-10.18c.55-2.54,1.68-5,1.89-7.57a.07.07,0,0,0-.11,0Z" fill="#262727"></path> <path d="M123.41,156.64c5.65,1.52,11.92,1.42,17.74,1.92,6.52.56,13.11,1.43,19.66,1.54.52,0,.66-.85.13-.93-5.88-.9-11.89-1.14-17.82-1.63-6.39-.53-13.28-1.83-19.66-1.23a.17.17,0,0,0,0,.33Z" fill="#262727"></path> <path d="M160.87,159.66a2.46,2.46,0,0,0-.57,1.59c-.12.75-.23,1.51-.35,2.26a.51.51,0,0,0,.13.49l.16.12a.24.24,0,0,0,.27,0l.19-.08a.51.51,0,0,0,.25-.44c.09-.76.17-1.52.25-2.28a2.46,2.46,0,0,0-.14-1.69.13.13,0,0,0-.2,0Z" fill="#262727"></path> <path d="M160.69,159.61a1.24,1.24,0,0,0,.42.49,2.11,2.11,0,0,1,1,1.9,3.68,3.68,0,0,1-.63,1.92c-.38.44-1.25.4-1.82.48l.7.7a2,2,0,0,0,.1-1A.26.26,0,0,0,160,164a1.83,1.83,0,0,0-.68.58.58.58,0,0,0,.55,1,7.51,7.51,0,0,0,2-.3c.4-.2.57-.79.74-1.18a4.61,4.61,0,0,0,.47-2.86,2.6,2.6,0,0,0-1.39-1.84c-.13-.05-1.24-.19-1,.29Z" fill="#262727"></path> <path d="M160.83,160c-.76.46-.71,1.66-.87,2.46s-.62,1.9-.14,2.68a.22.22,0,0,0,.3.08c.74-.57.7-1.62.85-2.48s.63-2,.11-2.67a.19.19,0,0,0-.26-.07Z" fill="#262727"></path> <path d="M122.29,157a1.94,1.94,0,0,0-1.14,1.57c-.08.6,0,1.5.72,1.69a.28.28,0,0,0,.35-.27c0-.44-.23-.83-.21-1.28a2.14,2.14,0,0,1,.57-1.32.24.24,0,0,0-.29-.38Z" fill="#262727"></path> <path d="M123.88,160.53c6,2,12.57,2.7,18.79,3.66,5.72.89,11.49,1.82,17.26,2.23.58,0,.72-.93.14-1-6.31-1-12.68-1.63-19-2.62-5.68-.89-11.41-2.34-17.14-2.72-.29,0-.31.39-.07.48Z" fill="#262727"></path> <path d="M159.88,166.17a1.92,1.92,0,0,0,1.82-.47,1.47,1.47,0,0,0,.57-1.61.2.2,0,0,0-.32,0c-.27.3-.43.69-.73,1a2.25,2.25,0,0,1-1.26.55.3.3,0,0,0-.08.59Z" fill="#262727"></path> <path d="M47.46,153.73c8.51-17.2,24.62-27.84,44.11-27.49,20.2.36,35.85,11.75,48.35,26.62.4.48,1.22-.15.87-.67-11-16.63-30.94-27.76-50.94-27.45-18.1.28-37.14,10.83-43.28,28.62a.49.49,0,0,0,.89.38Z" fill="#262727"></path> <path d="M139.24,150.41c1.67-1.23,13.69-10.91,15.47-8.75a.34.34,0,0,0,.56-.33l-.4-1.05a.54.54,0,0,0-.77-.31,56.88,56.88,0,0,0-15.35,9.81c-.33.31.12.91.49.63Z" fill="#262727"></path> <path d="M131.79,174.44c4.48,2.73,9.68,4.6,14.6,6.34,2.5.88,6.16,3,8.23.5.28-.34-.1-1-.51-.67-2.65,2-9.56-1.64-12.1-2.63-3.35-1.31-6.59-2.9-10-4.12-.35-.12-.54.4-.24.58Z" fill="#262727"></path> <path d="M151.94,141.7c-2.66,3.52-3.79,9.65-3.54,14,0,.26.41.34.47.06.51-2.34.74-4.73,1.3-7.06s1.6-4.57,2-6.92a.11.11,0,0,0-.19-.08Z" fill="#262727"></path> <path d="M147.76,168.85c-.07,4.26,1.08,9.84,4,13.13a.27.27,0,0,0,.44-.26c-.66-2.16-1.86-4.12-2.55-6.3a63.4,63.4,0,0,1-1.58-6.61c0-.16-.27-.12-.27,0Z" fill="#262727"></path> <path d="M46.49,154.12c7,36,68.1,48.64,87.6,16.92.23-.37-.33-.83-.62-.48-11.91,14.72-30.05,19.84-48.33,15.57-17.12-4-32.61-14.9-37.83-32.23a.43.43,0,0,0-.82.23Z" fill="#262727"></path> <path d="M46.86,154.22H47a.34.34,0,0,0,.33-.33s0-.07,0-.11a.44.44,0,1,0-.44.44Z" fill="#262727"></path> <path d="M61.78,173.49q0-.2.29,0l-.23.56-.1,0-.19-.73a.76.76,0,0,0-.16.55c0,.25.27.53.55.42a.88.88,0,0,0,.52-.44.54.54,0,0,0-.32-.78.88.88,0,0,0-.9.24.5.5,0,0,0-.08.6c.63.91,1.73-.27.82-.66-.17-.07-.36.12-.21.27Z" fill="#262727"></path> <path d="M91,182.16a.21.21,0,0,1,0-.14h.43c.12.23.08.37-.12.41l-.44-.25,0-.12.15-.37h0l.42.05-.07,0,.25.63-.18.14-.48-.84c.31,0,.38-.08.21-.12l-.21,0a.5.5,0,0,0-.5.5c.1.91,1.24.79,1.53.07a.56.56,0,0,0-.54-.71.92.92,0,0,0-.89.68.56.56,0,0,0,.25.63.71.71,0,0,0,1-.81c-.2-.65-1-.49-1.26,0s.08,1.11.65,1a.53.53,0,0,0,.11-1,.28.28,0,0,0-.4.31Z" fill="#262727"></path> <path d="M118.81,179.55a.21.21,0,0,1,.12,0l0,.34-.3-.26.48-.13-.23-.09.37.48v-.08l-.15.36.18-.23a.46.46,0,0,0-.27-.67l-.07,0a.5.5,0,0,0-.49.13.67.67,0,0,0-.18.64.49.49,0,0,0,.35.35l.24.07a.48.48,0,0,0,.48-.13.78.78,0,0,0-.11-1.2.74.74,0,0,0-1.09.43.6.6,0,0,0,.82.66.44.44,0,0,0,.11-.76.12.12,0,0,0-.2.08Z" fill="#262727"></path> <path d="M115.8,168.27c.25.17.54.49.45.83s-.52.56-.78.3a.36.36,0,0,1,.09-.61c.18-.08.4,0,.59-.07a.26.26,0,0,0,.18-.32c-.21-.69-1.16-.44-1.51,0a1.11,1.11,0,1,0,1.95,1,1,1,0,0,0-.92-1.25.08.08,0,0,0,0,.15Z" fill="#262727"></path> <path d="M120.77,165.58c.62.11,1.26.86.72,1.42a.73.73,0,0,1-1.25-.31.71.71,0,0,1,.74-.9c.28,0,.66.11.79-.24a.33.33,0,0,0-.09-.33c-.64-.65-1.78-.17-2.16.54a1.57,1.57,0,0,0,.8,2.12,1.51,1.51,0,0,0,1.94-1.16,1.33,1.33,0,0,0-.37-1.08,1,1,0,0,0-1.13-.31c-.11,0-.12.22,0,.24Z" fill="#262727"></path> <path d="M111.1,169.76s.07,0,.06,0l.13.31a.14.14,0,0,1,.12-.16l-.68-.18c0-.16,0-.19-.1-.09a.46.46,0,0,0,.32.78.77.77,0,0,0,.63-1.19.5.5,0,0,0-.68-.18,1,1,0,0,0-.48,1.13.45.45,0,0,0,.42.32.57.57,0,0,0,.59-.78.18.18,0,0,0-.34,0Z" fill="#262727"></path> <path d="M51.57,159.84c19.36,15.43,49.57,23.33,72.81,12.42.34-.16.1-.73-.26-.61-12.53,4.46-25.21,5.67-38.28,2.85-12.48-2.69-23.08-8.73-34-15-.22-.13-.5.2-.28.37Z" fill="#262727"></path> <path d="M54.21,155.55A130.37,130.37,0,0,0,107.86,162a.28.28,0,0,0,0-.55c-8.76-.17-17.41,0-26.13-1-9.33-1-18.28-3.23-27.44-5.15a.16.16,0,0,0-.09.31Z" fill="#262727"></path> <path d="M54,151.25c8.18-6.31,20.12-7.38,30.12-7.28,10.66.11,20.2,2.9,30.24,6.07a.19.19,0,0,0,.15-.34c-9.59-5-21.43-6.73-32.16-6.48-9.42.21-21.14,1.39-28.57,7.75-.16.13.06.42.22.29Z" fill="#262727"></path> <path d="M56.74,142.7C66.88,135.54,78,130.79,90.63,131c13.22.18,24.51,5.67,34.61,13.83.3.24.72-.14.44-.44C108,126,75.21,125,56.55,142.44c-.13.12,0,.36.19.25Z" fill="#262727"></path> <path d="M83,226.19c-.76-3.24-9.27-22.65-14.7-17.63-5.74,5.31,12,16.33,15.39,17.72.17.07.31-.19.18-.31-2.1-1.86-4.6-3.18-6.86-4.84a40,40,0,0,1-4.43-3.71c-1.07-1-3.45-2.94-3.65-4.4q1.41-6.36,4.16-2.8.82.86,1.58,1.77a40.89,40.89,0,0,1,3.44,4.73,61.61,61.61,0,0,1,4.5,9.59.21.21,0,0,0,.4-.11Z" fill="#262727"></path> <path d="M83.12,226.32c1.77-3.3,3-6.85,5.1-10a24.69,24.69,0,0,1,3.31-4.06,18.07,18.07,0,0,1,2-1.67,8.26,8.26,0,0,1,1.27-.86q2.07-1.52,3.77,2.34c-.37,2.67-4.31,5.94-6.25,7.63a60.69,60.69,0,0,1-9.22,6.25.34.34,0,0,0,.35.59,39.27,39.27,0,0,0,12.64-9.38c1.48-1.72,5.82-6.37,3.11-8.71s-7,1.78-8.73,3.52A34.78,34.78,0,0,0,82.6,226.1a.29.29,0,0,0,.52.22Z" fill="#262727"></path> <path d="M61.19,173.94c6.7,17.72,14.92,34.93,21.87,52.57.17.44.89.25.71-.2-6.88-17.56-13.49-35.77-22.1-52.57-.13-.26-.59-.08-.48.2Z" fill="#262727"></path> <path d="M91,182.08c-2.35,7.51-3.33,15.61-4.74,23.35-1.21,6.63-3.21,13.48-3.68,20.19,0,.2.27.22.34,0,2.47-6.74,3.13-14.58,4.42-21.64,1.32-7.27,3.17-14.57,4-21.91,0-.19-.28-.22-.33,0Z" fill="#262727"></path> <path d="M83.25,225.72a.88.88,0,0,1-.36-.12.46.46,0,0,0-.56.56.82.82,0,0,0,1.05.49c.5-.13.42-1-.13-.93Z" fill="#262727"></path> <path d="M118.39,179.6c-12.31,15-24.18,30.69-35.38,46.5-.14.19.18.44.33.25,12.2-15,24.34-30.57,35.43-46.46.15-.22-.2-.5-.37-.29Z" fill="#262727"></path> <path d="M99.13,188.35c-5.6,12.28-10.6,24.91-15.34,37.54-.13.35.43.5.56.15,4.87-12.6,10.05-25,15.15-37.54.09-.21-.27-.36-.37-.15Z" fill="#262727"></path> <path d="M78.25,185.22c1.8,13.49,3.13,27,3.76,40.61,0,.36.58.36.56,0-.65-13.61-1.85-27.19-3.82-40.67,0-.28-.54-.22-.5.07Z" fill="#262727"></path> <path d="M84.39,226.61a3.15,3.15,0,0,0-1.45-.28c-.43,0-1.05-.11-1.34.26a.25.25,0,0,0,0,.34c.29.37.92.26,1.34.24a3.16,3.16,0,0,0,1.45-.3.16.16,0,0,0,0-.27Z" fill="#262727"></path> <path d="M81.45,226.69c-1.57,13.87-2.9,28-3.64,41.91,0,.53.75.5.81,0,1.6-13.86,2.64-28,3.4-41.91,0-.37-.53-.35-.57,0Z" fill="#262727"></path> <path d="M84.07,226.63c-2.24,13.71-3.22,27.72-4.8,41.52-.06.5.74.5.79,0,1.5-13.78,3.64-27.62,4.48-41.46,0-.26-.43-.33-.47-.06Z" fill="#262727"></path> <path d="M37.63,267.3a127.25,127.25,0,0,0,25.88-.22c.42,0,.44-.67,0-.67-8.57.07-17.33,0-25.88.51a.19.19,0,0,0,0,.39Z" fill="#262727"></path> <path d="M63.42,267c17.3,3,35.06,4.76,52.52,6.61.45,0,.56-.73.11-.8-17.38-2.45-35-5.05-52.55-6.38-.32,0-.4.52-.08.57Z" fill="#262727"></path> <path d="M37.55,267.74c6.95,1,14,1.64,20.93,2.44,7.53.87,15.18,2.21,22.76,2.44.35,0,.44-.55.08-.61-6.88-1.27-14-1.66-20.93-2.45-7.57-.86-15.16-1.92-22.76-2.44-.35,0-.44.58-.08.63Z" fill="#262727"></path> <path d="M80.7,272.45a196.61,196.61,0,0,0,35.44,1,.28.28,0,0,0,0-.56c-11.72-.65-23.7-.83-35.44-1-.33,0-.31.46,0,.5Z" fill="#262727"></path> <path d="M67.28,270.94c3.85.12,7.71-1.07,11.4-2,.3-.08.25-.6-.08-.56a33.08,33.08,0,0,0-5.2,1.22,37.07,37.07,0,0,1-6.12,1.05.17.17,0,0,0,0,.34Z" fill="#262727"></path> <path d="M69,271.07a35.1,35.1,0,0,0,6.07-.8A25.07,25.07,0,0,0,81,268.78a.18.18,0,0,0-.09-.34,37.43,37.43,0,0,0-5.55,1.08c-2.12.43-4.29.71-6.37,1.3a.13.13,0,0,0,0,.25Z" fill="#262727"></path> <path d="M65.94,225c17.74,3.06,36.09,5.62,54,7.13.38,0,.47-.6.09-.67-17.72-3.16-36.11-5.41-54-7-.31,0-.39.5-.07.56Z" fill="#262727"></path> <path d="M66,224.6a415.22,415.22,0,0,0-3,42.2c0,.5.73.49.77,0,1.11-14,2.27-28.16,2.88-42.2,0-.42-.59-.4-.64,0Z" fill="#262727"></path> <path d="M40.06,226.32c8.42.63,17.72-.27,26.11-1.1a.37.37,0,0,0,0-.74c-8.46,0-17.82,0-26.16,1.45-.24,0-.16.38.05.4Z" fill="#262727"></path> <path d="M40,226.17c-1.13,6.33-1,13-1.45,19.44-.5,7.11-1,14.22-1.29,21.35,0,.56.85.56.87,0,.27-6.8.73-13.59,1.22-20.38s1.57-13.72.92-20.38c0-.14-.24-.2-.27,0Z" fill="#262727"></path> <path d="M39.57,226.56q5.68,10.85,12.35,21.11c.26.4.9,0,.64-.37Q45.89,237,40,226.29c-.16-.3-.61,0-.45.26Z" fill="#262727"></path> <path d="M52.08,247.79c5.29-6.66,10.59-14.17,14.28-21.85a.31.31,0,0,0-.54-.31c-4.93,7.07-9.4,14.66-14,22-.1.16.15.37.28.21Z" fill="#262727"></path> <path d="M54.13,244.77c.83,2.78,3,5.32,4.55,7.76a74.24,74.24,0,0,0,5,7.54c.19.23.51-.06.39-.3a78.5,78.5,0,0,0-5-8.15c-1.48-2.3-2.77-5.08-4.83-6.9a.06.06,0,0,0-.1.06Z" fill="#262727"></path> <path d="M49,243.4a216.23,216.23,0,0,0-11.37,19.15.26.26,0,0,0,.46.27A216.28,216.28,0,0,0,49.5,243.67a.28.28,0,0,0-.48-.28Z" fill="#262727"></path> <path d="M85,246.5c-.68.72-.44,2-.47,2.94,0,1.12-.29,2.42.19,3.46a.23.23,0,0,0,.39,0c.54-1,.34-2.34.36-3.46,0-.94.32-2.18-.32-2.94a.11.11,0,0,0-.15,0Z" fill="#262727"></path> <path d="M85.21,247c.26.22.62.11.94.18a1.4,1.4,0,0,1,1,.88,1.09,1.09,0,0,1-.39,1.16,1.57,1.57,0,0,1-1.33.28.4.4,0,0,0-.2.74,2.06,2.06,0,0,0,2.7-2.39,2.17,2.17,0,0,0-1.52-1.4,1.32,1.32,0,0,0-1,.09c-.11.08-.34.33-.17.47Z" fill="#262727"></path> <path d="M87.71,253.67c.43-.29.47-.72.63-1.22l.61-2,.14-.46c.28-.18.41-.14.4.13a3,3,0,0,1,.16,1l.36,2.25c.07.43.73.25.66-.18a26.08,26.08,0,0,0-.56-3.42c-.14-.46-.5-.92-1-.75s-.76,1.18-.92,1.74l-.44,1.53c-.14.48-.34.86-.15,1.33a.1.1,0,0,0,.14.06Z" fill="#262727"></path> <path d="M89.82,251.13c-.24-.44-1.1-.29-1.41,0a.27.27,0,0,0,.05.43,1.2,1.2,0,0,0,1.05,0c.12,0,.4-.2.3-.39Z" fill="#262727"></path> <path d="M92.37,249.21c-.42.39-.38,1.15-.44,1.69s-.33,1.46,0,2a.22.22,0,0,0,.34,0c.42-.45.32-1.19.37-1.77s.26-1.43-.11-1.94a.11.11,0,0,0-.17,0Z" fill="#262727"></path> <path d="M94.12,249.88a1.75,1.75,0,0,0-1.86.66.38.38,0,0,0,.43.55,4.08,4.08,0,0,0,.69-.32c.24-.09.5-.11.74-.19a.36.36,0,0,0,0-.7Z" fill="#262727"></path> <path d="M86,256.39a10.72,10.72,0,0,0-1.23,3.26c-.4,1.26-.8,2.51-1.18,3.78-.15.53.73.69.76.1l0-.4A.24.24,0,0,0,84,263l-.28.29.65.38c.4-1.26.77-2.52,1.15-3.78a10.61,10.61,0,0,0,.81-3.38.16.16,0,0,0-.31-.08Z" fill="#262727"></path> <path d="M86,256.61a9.86,9.86,0,0,0,.65,3.24c.27,1.21.34,2.49.7,3.68a.32.32,0,0,0,.62-.08,13.53,13.53,0,0,0-.53-3.81,6.53,6.53,0,0,0-1.14-3.15.17.17,0,0,0-.29.12Z" fill="#262727"></path> <path d="M87.29,260.62c-.27-.33-.8-.34-1.19-.39s-.83-.1-1.09.28a.31.31,0,0,0,0,.31c.24.41.7.35,1.13.33a1.63,1.63,0,0,0,1.16-.32.16.16,0,0,0,0-.22Z" fill="#262727"></path> <path d="M88.55,259.3c-.52.49-.27,1.05-.1,1.7a13.32,13.32,0,0,0,.74,2.08.46.46,0,0,0,.79,0l1.72-3.22c.29-.53-.53-1-.81-.47l-1.7,3.23H90a13.07,13.07,0,0,1-.71-2c-.16-.6-.11-1.05-.7-1.34Z" fill="#262727"></path> <path d="M93.09,259.66c-.35.23-.32.62-.36,1-.06.59-.1,1.17-.15,1.76s.91.6.93,0,0-1.1,0-1.65c0-.38.07-.84-.26-1.1a.15.15,0,0,0-.18,0Z" fill="#262727"></path> <path d="M93.35,257.84a.54.54,0,0,0,0-1.09.54.54,0,0,0,0,1.09Z" fill="#262727"></path> <path d="M95.09,261.08a1.16,1.16,0,0,1,1.91.07.87.87,0,0,1-.7,1.23.73.73,0,0,1-.91-.8c0-.59.48-.71.79-1.11a.27.27,0,0,0-.1-.37c-1-.44-1.57,1.06-1.46,1.79A1.51,1.51,0,0,0,96.79,263a1.53,1.53,0,0,0,.58-2.46,1.46,1.46,0,0,0-2.5.42c0,.13.13.22.22.13Z" fill="#262727"></path> <path d="M99.5,260c-.43.2-.39.72-.43,1.15-.07.69-.12,1.39-.18,2.08,0,.54.76.52.83,0,.09-.69.37-2.28,1.43-2s.17,1.63.31,2.27a.28.28,0,0,0,.41.16c1.1-.75.81-3-.57-3.31C99.61,260,99,262,98.89,263.25h.83c.06-.86.19-1.74.17-2.6,0-.16-.07-.78-.4-.62Z" fill="#262727"></path> <path d="M68.91,233.67l-.18.09a.41.41,0,0,0-.21.36,7.77,7.77,0,0,0,.22,2.61c.13.31.58.18.66-.09a3.21,3.21,0,0,0,0-1.2l-.08-1.32a.44.44,0,0,0-.31-.4c.12,0-.1-.07-.14-.05Z" fill="#262727"></path> <path d="M70.45,233.31a7.28,7.28,0,0,0-2.48-.48.46.46,0,0,0-.4.23.41.41,0,0,0,0,.36.46.46,0,0,0,.32.33,7.27,7.27,0,0,0,2.54.09.29.29,0,0,0,.07-.52Z" fill="#262727"></path> <path d="M70.38,235.52A1.09,1.09,0,0,0,71.7,237a1.59,1.59,0,0,0,1.12-2.22,1.38,1.38,0,0,0-2.24-.28c-.46.61-.26,2,.72,1.74a.24.24,0,0,0,.14-.34,1.08,1.08,0,0,1-.15-.75c.12-.32.52-.22.71,0a.72.72,0,0,1-.15,1c-.45.4-1.51.29-1.26-.53,0-.12-.15-.2-.2-.09Z" fill="#262727"></path> <path d="M74.27,235c.38.36.87.27.81-.34-.1-1-1.4-.21-.81.34Z" fill="#262727"></path> <path d="M74.67,235.91a.49.49,0,1,0,.22,1,.49.49,0,0,0-.22-1Z" fill="#262727"></path> <path d="M73.06,239.26a13,13,0,0,0-2.12-.3,6.49,6.49,0,0,0-2.17,0,.37.37,0,0,0,0,.71,6.52,6.52,0,0,0,2.17.13,13,13,0,0,0,2.12-.16c.19,0,.17-.32,0-.37Z" fill="#262727"></path> <path d="M75.92,242.1a15.77,15.77,0,0,0-3.5-.5,22.39,22.39,0,0,0-4-.18c-.4,0-.55.64-.1.75a21.61,21.61,0,0,0,3.84.33,16.59,16.59,0,0,0,3.79,0c.18,0,.15-.29,0-.34Z" fill="#262727"></path> <path d="M76.56,244a29.09,29.09,0,0,0-4-.59,14.53,14.53,0,0,0-4.06-.18c-.35.07-.28.55,0,.65a13.64,13.64,0,0,0,3.76.42,30.56,30.56,0,0,0,4.28,0c.19,0,.25-.29,0-.34Z" fill="#262727"></path> <path d="M76.35,246.06c-2.55-.31-5.87-.72-8.37-.09a.37.37,0,0,0,0,.71c2.54.58,5.86.09,8.42-.27.22,0,.13-.33,0-.35Z" fill="#262727"></path> <path d="M281,76.59c-.22,1.82,1.08,3.93,1.89,5.54a22.62,22.62,0,0,0,3.49,5.6c.34.35.82-.09.64-.49-.9-1.95-2.24-3.71-3.21-5.64-.81-1.61-1.32-3.84-2.64-5.07a.1.1,0,0,0-.17.07Z" fill="#262727"></path> <path d="M279.45,58.56c-1,1.8-.8,4.24-.71,6.25A21.74,21.74,0,0,0,280,72c.16.38.86.39.8-.11-.28-2.38-.87-4.68-1-7.09-.13-2,.35-4.29-.23-6.24a.07.07,0,0,0-.12,0Z" fill="#262727"></path> <path d="M259.73,75.85c4.29,0,8.59-1.08,12.81-1.81,4.85-.84,9.78-1.49,14.56-2.68.51-.12.42-1-.13-.93-4.3.45-8.55,1.36-12.81,2.11-4.78.85-9.92,1.28-14.48,3a.17.17,0,0,0,0,.33Z" fill="#262727"></path> <path d="M287,70.85c-.36.24-.29.67-.26,1.07,0,.64.12,1.28.19,1.92a.51.51,0,1,0,1-.14c0-.3-.35-3.24-.92-2.86Z" fill="#262727"></path> <path d="M287,71.18c.5.25,1,.45,1.15,1a3.85,3.85,0,0,1-.14,2l.26-.34L287,74.4l.86.49a1.48,1.48,0,0,0-.2-.75.26.26,0,0,0-.35-.09,1.43,1.43,0,0,0-.51.55c-.33.54.3,1,.78.78s1.34-.37,1.58-.9a4.5,4.5,0,0,0,.19-2.22c-.16-1-1.1-2.21-2.2-1.81a.4.4,0,0,0-.1.73Z" fill="#262727"></path> <path d="M286.71,71.55c0,.84.06,1.68.12,2.52,0,.36.09,1.11.63,1.05s.46-.84.43-1.19c-.07-.84-.12-1.68-.25-2.51-.08-.54-.93-.39-.93.13Z" fill="#262727"></path> <path d="M259,76.18a1.47,1.47,0,0,0-.63,1.47c.08.53.39,1.18,1,1.08a.28.28,0,0,0,.2-.27c0-.34-.24-.54-.33-.86a1.65,1.65,0,0,1,.07-1.09c.09-.2-.11-.49-.33-.33Z" fill="#262727"></path> <path d="M260.8,78.56c8.64.61,18.37-.92,26.87-2.51.57-.11.45-1.09-.14-1-8.77.89-18.17,1.33-26.8,3.06-.28.06-.19.46.07.48Z" fill="#262727"></path> <path d="M287.47,75.81a1.39,1.39,0,0,0,1.35-.65,1.09,1.09,0,0,0,.08-1.39.2.2,0,0,0-.32,0c-.17.25-.22.57-.39.82a2.14,2.14,0,0,1-.8.63c-.2.12-.2.51.07.55Z" fill="#262727"></path> <path d="M205,88c2.86-13.79,12.23-24.32,26.1-27.81C245.62,56.56,259,61.82,270.77,70c.43.3,1-.38.56-.73-11.2-9.91-27.66-14.16-42.11-9.88-12.8,3.79-23.8,14.78-25,28.48a.41.41,0,0,0,.8.11Z" fill="#262727"></path> <path d="M269.93,68.46a79,79,0,0,1,9.21-9.67h-.74a2.1,2.1,0,0,0,.81.52.34.34,0,0,0,.46-.46,2.1,2.1,0,0,0-.52-.81.54.54,0,0,0-.74,0A38,38,0,0,0,269.3,68c-.22.39.33.84.63.49Z" fill="#262727"></path> <path d="M269,87c4,1.3,8.52,1.62,12.7,1.92,2,.14,4.18.66,5-1.46.16-.4-.44-.72-.71-.41-1.68,1.92-6.83.58-9,.34-2.65-.3-5.28-.85-7.94-1-.37,0-.41.52-.08.62Z" fill="#262727"></path> <path d="M277.26,59.74c-1.43,2.87-1,7.75.06,10.7a.24.24,0,0,0,.47-.06c0-1.9-.33-3.79-.35-5.69a29.4,29.4,0,0,0,0-4.92.11.11,0,0,0-.19,0Z" fill="#262727"></path> <path d="M279.37,79.95a15,15,0,0,0,2.07,5c.8,1.27,1.85,3,3.23,3.71a.27.27,0,0,0,.36-.36c-.66-1.47-2.09-2.66-3-4s-1.67-2.91-2.44-4.38c-.07-.14-.28,0-.25.11Z" fill="#262727"></path> <path d="M204.35,88.49c11.64,24.43,57.92,22,65.75-4.42.1-.35-.44-.6-.6-.25-5.86,12.38-17,19.49-30.75,20.11-13.35.6-26.42-4.3-33.79-15.8a.35.35,0,0,0-.61.36Z" fill="#262727"></path> <path d="M204.89,88.47c.37-.32-.11-.93-.53-.69s0,1.11.53.69Z" fill="#262727"></path> <path d="M218.85,99.39l0-.08.26-.11.13.1-.08.6-.21,0-.37-.65a.6.6,0,0,0,.06.6.45.45,0,0,0,.49.2.65.65,0,0,0,.47-.52.54.54,0,0,0-.51-.67.81.81,0,0,0-.71.41.5.5,0,0,0,.18.67c.78.52,1.29-.85.42-.85a.17.17,0,0,0-.15.26Z" fill="#262727"></path> <path d="M241.31,100l.1-.16h.43l-.05,0,.14.34-.19.2-.49-.13.05,0-.15-.36.15-.28.42-.05h-.07l.39.68-.18.13-.69-.69q.52-.25.22-.23a.55.55,0,0,0-.27,1,.75.75,0,0,0,1.13-.48c.07-.37-.26-.86-.69-.69a.86.86,0,0,0-.61.8c0,.31.28.54.55.55a.65.65,0,0,0,.23-1.27.67.67,0,0,0-.76.46.7.7,0,0,0,.31.81.48.48,0,0,0,.58-.08.46.46,0,0,0-.2-.83.28.28,0,0,0-.35.27Z" fill="#262727"></path> <path d="M260.76,92.91c-.07.07,0,.08.19,0v.45l-.1.07-.33-.14v-.26l.55-.23-.18,0,.35.35v-.08l-.05.39,0-.08c.2-.4-.23-1-.67-.67l-.07,0a.52.52,0,0,0-.23.58l0,.08a.51.51,0,0,0,.48.37h.18a.51.51,0,0,0,.47-.36.66.66,0,1,0-1.26-.39.45.45,0,0,0,.11.43c.4.4,1.15.06.82-.5a.22.22,0,0,0-.24-.1.12.12,0,0,0-.08,0Z" fill="#262727"></path> <path d="M209.12,91.63c16.94,7.12,39.53,7.47,54.27-4.84.24-.2-.08-.61-.33-.43-17,11.41-34.86,10.3-53.83,4.9-.25-.07-.33.28-.1.37Z" fill="#262727"></path> <path d="M210.16,88.05a97.84,97.84,0,0,0,39.5-5.5.23.23,0,0,0-.12-.45c-6.19,1.51-12.27,3.19-18.58,4.13-6.92,1-13.82,1.2-20.79,1.55a.13.13,0,0,0,0,.27Z" fill="#262727"></path> <path d="M209.22,85C218.9,72.85,238,72.14,252.05,72.81a.16.16,0,0,0,0-.31c-7.92-1.77-16.66-.8-24.39,1.46-6.71,2-14.52,5-18.71,10.87-.1.14.13.32.24.19Z" fill="#262727"></path> <path d="M209.56,78.4C222.53,63.08,240.4,59,258.8,67c.3.13.55-.27.26-.45-16.2-9.82-39.55-4.27-49.71,11.65-.08.13.11.28.21.16Z" fill="#262727"></path> <path d="M244,133c-1.18-2.35-11-14.55-13.95-9.79-3,5,11.53,9.58,14.41,9.8a.18.18,0,0,0,.09-.34c-1.92-1.1-4.14-1.56-6.18-2.39-1.78-.72-6-2.27-6.86-4.08q1.15-3.93,3.11-2.13,1.13.75,2.2,1.61t2.1,1.85a56.37,56.37,0,0,1,4.76,5.72c.15.19.42-.05.32-.25Z" fill="#262727"></path> <path d="M244.16,133.11c.67-2.55.88-5.18,1.68-7.7a17.74,17.74,0,0,1,1.76-3.95,11.16,11.16,0,0,1,1.38-1.89q1.24-1.94,3.35.42c.51,1.68-2.35,5.64-3.24,6.93a49.45,49.45,0,0,1-5.13,5.85c-.31.32.15.77.48.48a27.69,27.69,0,0,0,7.78-10.14c.61-1.45,2.2-4.83.06-5.89s-4.26,1.9-5.22,3.35A23.91,23.91,0,0,0,243.61,133a.28.28,0,0,0,.56.08Z" fill="#262727"></path> <path d="M218.53,99.88c8.06,11.41,17.18,22.14,25.47,33.4.28.38.92,0,.64-.37-8.21-11.24-16.34-23-25.69-33.35-.2-.22-.59.07-.42.32Z" fill="#262727"></path> <path d="M241.38,100c-.29,5.89.51,11.89,1,17.77.38,4.92.3,10,1.22,14.89,0,.2.32.13.34,0,.5-5.39-.45-11.1-.87-16.49s-.51-10.84-1.31-16.17c0-.2-.32-.14-.33,0Z" fill="#262727"></path> <path d="M244,132.53c.08,0,.06,0-.06,0a.49.49,0,0,0-.38.9.76.76,0,0,0,.7.05.48.48,0,0,0-.25-.92Z" fill="#262727"></path> <path d="M260.42,93.1c-6,13-11.65,26.42-16.49,39.85-.08.22.28.38.38.16,6-12.94,11.66-26.41,16.55-39.82.09-.25-.32-.43-.44-.18Z" fill="#262727"></path> <path d="M248.32,103c-1.71,9.81-2.89,19.78-3.91,29.68,0,.37.54.37.58,0,1.1-9.9,2.48-19.75,3.73-29.63,0-.22-.36-.28-.4-.05Z" fill="#262727"></path> <path d="M232.82,104.71c3.8,9.3,7.3,18.68,10.31,28.27.11.34.65.2.54-.15-3-9.59-6.44-19.06-10.39-28.31-.11-.26-.57-.07-.46.19Z" fill="#262727"></path> <path d="M245.1,133a2,2,0,0,0-1.37,0c-.29.07-.87.21-.75.65s.61.28.89.2a2.07,2.07,0,0,0,1.29-.68.16.16,0,0,0-.06-.21Z" fill="#262727"></path> <path d="M258.33,81.52c2.09,2.08,2,4.36,1.67,7.07a.15.15,0,0,0,.27.11c1.46-2.36.16-5.7-1.69-7.42-.16-.15-.4.08-.24.24Z" fill="#262727"></path> <path d="M254.09,82.79a5.26,5.26,0,0,1,1.76,3.83,9.46,9.46,0,0,1-.92,3.5.21.21,0,0,0,.3.23c2.76-1.85,1.17-6.22-.94-7.82-.15-.11-.35.14-.2.26Z" fill="#262727"></path> <path d="M251.93,86.38c.69,1.41.26,2.87-.17,4.27a.29.29,0,0,0,.48.28c1.33-1.34,1-3.35.23-4.86-.19-.36-.71,0-.54.31Z" fill="#262727"></path> <path d="M262.29,81.45A6.22,6.22,0,0,1,263,83c.07.53-.24,1.14-.06,1.61a.22.22,0,0,0,.31.13c.59-.25.56-1.27.47-1.79a2.3,2.3,0,0,0-1.08-1.77c-.14-.06-.39,0-.31.24Z" fill="#262727"></path> <path d="M264.77,81.48a1.67,1.67,0,0,0,.34.93.23.23,0,0,0,.39-.1,1.71,1.71,0,0,0-.11-1,.32.32,0,0,0-.62.17Z" fill="#262727"></path> <path d="M212.72,83.56a1.64,1.64,0,0,0,0,2.51c.17.11.37-.07.33-.25a4,4,0,0,1-.22-1,3,3,0,0,1,.27-1,.23.23,0,0,0-.34-.26Z" fill="#262727"></path> <path d="M216.13,81.39c-1.22,1.64-1.65,4.89.46,6.08a.2.2,0,0,0,.28-.28,7.92,7.92,0,0,1-1.05-2.73,4.41,4.41,0,0,1,.71-2.85c.17-.24-.22-.46-.39-.23Z" fill="#262727"></path> <path d="M218.62,80.05c-.85,1.69-1.34,4.82.34,6.21.11.09.34,0,.32-.13-.1-.9-.55-1.7-.66-2.62A7.46,7.46,0,0,1,219,80.2a.19.19,0,0,0-.35-.15Z" fill="#262727"></path> <path d="M221.11,80.93c-.24,1.14-.35,2.64.46,3.6a.2.2,0,0,0,.34-.14,12.12,12.12,0,0,0-.28-1.53,7.39,7.39,0,0,1-.09-1.87c0-.24-.38-.3-.43-.06Z" fill="#262727"></path> <path d="M216.72,89.24a5.4,5.4,0,0,0-.14,1.29,2.31,2.31,0,0,0,.18,1.21.29.29,0,0,0,.52-.07,2.23,2.23,0,0,0,0-1.14,5.45,5.45,0,0,0-.35-1.3c0-.08-.17-.11-.2,0Z" fill="#262727"></path> <path d="M219.43,88.94a3.18,3.18,0,0,0-.4,2.45c.12.68.39,1.72,1.16,1.9a.21.21,0,0,0,.26-.2c0-.63-.44-1.2-.57-1.8a9.94,9.94,0,0,1,0-2.23.23.23,0,0,0-.42-.11Z" fill="#262727"></path> <path d="M222.63,89.16a4.73,4.73,0,0,0,.84,4.73.24.24,0,0,0,.39-.23c-.17-.74-.48-1.45-.63-2.2s0-1.52-.22-2.25a.21.21,0,0,0-.38,0Z" fill="#262727"></path> <path d="M213.68,140.24A275.66,275.66,0,0,0,218.16,169c.12.53.87.29.8-.22-1.31-9.49-2.46-19.31-4.64-28.63-.08-.34-.67-.28-.63.08Z" fill="#262727"></path> <path d="M231.52,135.48c1,10.52,2.35,21.2,4.12,31.61.07.38.72.3.68-.09-1-10.52-2.39-21.19-4.14-31.61-.06-.37-.69-.29-.66.09Z" fill="#262727"></path> <path d="M269.89,129.59c1.09,10.57,2.5,21.12,3.78,31.67.06.48.83.49.77,0-1.28-10.59-2.42-21.2-3.89-31.76-.05-.37-.7-.29-.66.09Z" fill="#262727"></path> <path d="M218.19,168.93c5.54,1.11,12.39.46,17.95-.41.36-.06.28-.65-.09-.64-3,.13-5.93.45-8.9.56s-6-.15-8.92.22c-.14,0-.2.24,0,.27Z" fill="#262727"></path> <path d="M236.21,168.24c6-.19,12.17-1.76,18.12-2.76l19.89-3.34c.6-.1.35-1-.25-.91L255,164.42c-6.21,1-12.85,1.6-18.86,3.47a.18.18,0,0,0,0,.35Z" fill="#262727"></path> <path d="M213.62,140.35c3,.06,6.17-1,9.09-1.73a64.06,64.06,0,0,0,8.86-2.82c.35-.15.1-.68-.25-.59-3.18.83-6.28,1.95-9.46,2.78-2.74.72-5.67,1.09-8.28,2.2-.09,0,0,.17,0,.17Z" fill="#262727"></path> <path d="M231.12,136a191.74,191.74,0,0,0,38.46-6.23c.42-.11.23-.7-.18-.64-12.73,1.88-25.71,4-38.35,6.39a.25.25,0,0,0,.07.48Z" fill="#262727"></path> <path d="M244.21,133.74c.71,10.61,3,21.48,4.85,31.94.08.47.77.26.71-.2-1.44-10.51-2.62-21.51-5.21-31.79a.18.18,0,0,0-.35,0Z" fill="#262727"></path> <path d="M243,134.53c.82,10.51,3.09,21,4.7,31.46.08.52.87.3.78-.22-1.66-10.37-2.73-21.07-5.18-31.29,0-.17-.32-.14-.31,0Z" fill="#262727"></path> <path d="M214,140.74c1.19,3.07,3.71,5.81,5.69,8.43s4.17,5.43,6.38,8c.29.35.77-.15.49-.49-2.35-2.94-4.7-5.87-6.94-8.89-1.76-2.37-3.3-5.19-5.5-7.16-.05,0-.15,0-.13.07Z" fill="#262727"></path> <path d="M226.32,157c2.72-5.91,3.86-12.84,5.76-19.07a.4.4,0,0,0-.76-.21c-1.66,6.3-4.34,12.78-5.14,19.24,0,.08.11.11.15,0Z" fill="#262727"></path> <path d="M227.46,151.71a21.21,21.21,0,0,0,3.47,3c1.19,1,2.39,1.91,3.58,2.87.39.31.94-.24.55-.55-1.26-1-2.52-2-3.79-3a20.17,20.17,0,0,0-3.53-2.62.23.23,0,0,0-.27.36Z" fill="#262727"></path> <path d="M222.33,152.3a38.29,38.29,0,0,0-2.34,5.46c-.83,2.06-2,4.13-2.4,6.31a.16.16,0,0,0,.29.12,23.39,23.39,0,0,0,2.5-5.4,33,33,0,0,0,2.24-6.38.16.16,0,0,0-.29-.12Z" fill="#262727"></path> <path d="M248.94,147.42a42.83,42.83,0,0,0,1.16,5c.11.45.74.32.78-.11a.93.93,0,0,0-.11-.58.27.27,0,0,0-.42-.05.92.92,0,0,0-.25.53h.76a42.06,42.06,0,0,0-1.36-4.87c-.11-.27-.6-.27-.56.08Z" fill="#262727"></path> <path d="M249.79,148a.75.75,0,0,1,1.46.27,1.26,1.26,0,0,1-.61,1.07c-.31.21-.68.26-1,.46a.22.22,0,0,0,.05.39,1.91,1.91,0,0,0,2-2.59,1.19,1.19,0,0,0-1.32-.65.88.88,0,0,0-.79,1c0,.14.2.1.24,0Z" fill="#262727"></path> <path d="M252.49,152c.34-.69,0-1.64.35-2.34s.61.33.71.62a5.28,5.28,0,0,0,.44,1.13c.11.17.45.12.42-.11a7.19,7.19,0,0,0-.68-2c-.16-.34-.47-.65-.88-.49s-.54.82-.61,1.22a3.09,3.09,0,0,0,0,2,.15.15,0,0,0,.25,0Z" fill="#262727"></path> <path d="M253.92,150.23a2,2,0,0,0-1,.09c-.34.09-.62.11-.83.41-.08.11,0,.25.12.3.34.14.63,0,1-.14a1.79,1.79,0,0,0,.84-.44.13.13,0,0,0-.05-.21Z" fill="#262727"></path> <path d="M254.81,148.85a.3.3,0,0,0,.18-.32c0-.14-.2-.24-.3-.12s-.14.45-.09.75.17.84.25,1.26a.34.34,0,0,0,.24.24.31.31,0,0,0,.27,0,.36.36,0,0,0,.16-.4c-.08-.39-.16-.78-.25-1.17s-.08-.54-.37-.69l-.24.24,0,.11a.09.09,0,0,0,.12.12Z" fill="#262727"></path> <path d="M255.25,149.72a3.93,3.93,0,0,1,.67-.48c.25-.14.53-.13.77-.24s.37-.37.15-.58-.8,0-1.09.1a1.63,1.63,0,0,0-.89,1c-.08.23.22.36.38.22Z" fill="#262727"></path> <path d="M251.22,159.88a20.75,20.75,0,0,1,.2-5l-.58.08a36,36,0,0,1,2.13,4.26c.15.3.56.08.51-.22a11.76,11.76,0,0,0-2.1-4.36c-.14-.2-.52-.21-.58.08a9.86,9.86,0,0,0,.2,5.23c0,.11.22.1.22,0Z" fill="#262727"></path> <path d="M252.52,157.42c-.39-.23-.95.08-1.33.22a.35.35,0,0,0-.25.32.29.29,0,0,0,.1.24.32.32,0,0,0,.33.09c.4-.15,1.06-.27,1.21-.72a.13.13,0,0,0-.06-.15Z" fill="#262727"></path> <path d="M253.36,156c-.23.35.15.89.33,1.21a5.2,5.2,0,0,0,1.06,1.28.3.3,0,0,0,.5-.13c.11-.44.21-.87.32-1.31a4.09,4.09,0,0,0,.23-1.21.26.26,0,0,0-.49-.13,4,4,0,0,0-.34,1.17c-.1.44-.21.88-.3,1.32l.5-.13a4.77,4.77,0,0,1-1.05-1.2c-.19-.31-.26-.79-.62-.92a.12.12,0,0,0-.13.06Z" fill="#262727"></path> <path d="M256.74,155c-.29.2-.16.53-.11.83.1.54.21,1.09.33,1.63l.16-.39,0,0h.35l-.08,0a.3.3,0,0,0-.41.11.39.39,0,0,0,0,.41.35.35,0,0,0,.47.12l0,0a.35.35,0,0,0,.16-.39c-.06-.25-.46-2.58-.88-2.28Z" fill="#262727"></path> <path d="M256.43,154.19a.41.41,0,0,0,0-.82.41.41,0,0,0,0,.82Z" fill="#262727"></path> <path d="M258.38,155.11c-.35.68-.48,1.73.29,2.2s1.55-.36,1.73-1.07a1.52,1.52,0,0,0-1-2c-.76-.11-1.52.71-1,1.42a.28.28,0,0,0,.51-.22c-.08-.54.53-.67.85-.33a1.2,1.2,0,0,1,0,1.39.61.61,0,0,1-1.16-.11,3.12,3.12,0,0,1,.05-1.26.11.11,0,0,0-.2-.05Z" fill="#262727"></path> <path d="M261,154.52a12.12,12.12,0,0,0,.31,2.31l.66-.28a.86.86,0,0,0-.29-.33.21.21,0,0,0-.29.08.88.88,0,0,0-.1.44c0,.48.78.45.73,0a12.15,12.15,0,0,0-.45-2.29.3.3,0,0,0-.58.08Z" fill="#262727"></path> <path d="M261.44,155.58c.58-.17.59-1.06,1.31-1.12,1-.09.87,1.36.77,2a.29.29,0,1,0,.58.08.75.75,0,0,0,0-.18.19.19,0,0,0-.28-.16l-.16.09.43.33c.17-1,.23-2.46-1-2.76a1.43,1.43,0,0,0-1.34.46c-.27.28-.64.88-.36,1.26a.06.06,0,0,0,.07,0Z" fill="#262727"></path> <path d="M235.85,139.63a2.12,2.12,0,0,0,.11,1.21,11.38,11.38,0,0,0,.35,1.47l.47-.36-.25-.1a.23.23,0,0,0-.27.27.76.76,0,0,0,.05.18c.12.31.66.3.62-.08a11.09,11.09,0,0,0-.32-1.46,2.25,2.25,0,0,0-.46-1.22.18.18,0,0,0-.3.08Z" fill="#262727"></path> <path d="M237.26,139.06a5.41,5.41,0,0,0-1.45.19,5.23,5.23,0,0,0-1.43.46.3.3,0,0,0,.15.56,5.31,5.31,0,0,0,1.45-.4,5.38,5.38,0,0,0,1.32-.64.09.09,0,0,0,0-.17Z" fill="#262727"></path> <path d="M237.43,141c-.09.62-.06,1.55.76,1.62s1.08-.78,1.05-1.36a1.1,1.1,0,0,0-1.25-1.06c-.59.12-1,.92-.46,1.36.15.13.48.06.45-.19-.07-.59.62-.52.62,0a.7.7,0,0,1-.41.65c-.55.14-.57-.77-.59-1,0-.1-.16-.13-.18,0Z" fill="#262727"></path> <path d="M240,140.65a.32.32,0,0,0,0-.65.32.32,0,0,0,0,.65Z" fill="#262727"></path> <path d="M240.11,142l.23-.33.22.17c-.07-.11,0,0,0-.08a.24.24,0,0,0-.17-.23l0,0a.29.29,0,0,0-.29.08.47.47,0,0,0,.4.8.51.51,0,0,0,.12-.93c-.32-.21-.71.28-.41.54Z" fill="#262727"></path> <path d="M239.11,144.6a4.69,4.69,0,0,0-1.73,0,2.35,2.35,0,0,0-1.35.31.15.15,0,0,0,0,.24,2.72,2.72,0,0,0,1.55,0,4.25,4.25,0,0,0,1.54-.34.12.12,0,0,0,0-.23Z" fill="#262727"></path> <path d="M241.63,146.19c-1.55-.12-3.77-.18-5.12.71a.21.21,0,0,0,.11.4,12.87,12.87,0,0,0,2.38-.49c.88-.17,1.77-.35,2.66-.48.09,0,.06-.14,0-.14Z" fill="#262727"></path> <path d="M241.64,147.43c-1.47-.1-3.74,0-5,.9a.19.19,0,0,0,.09.35,8.18,8.18,0,0,0,2.34-.37c.86-.18,1.73-.33,2.58-.54a.17.17,0,0,0,0-.33Z" fill="#262727"></path> <path d="M241.75,149.08a5.65,5.65,0,0,0-2.2.19,7.56,7.56,0,0,0-2.42.63.26.26,0,0,0,.13.48,7.34,7.34,0,0,0,2.33-.33,5.82,5.82,0,0,0,2.2-.69.16.16,0,0,0,0-.29Z" fill="#262727"></path> <path d="M239.49,151.36A1,1,0,0,0,238,152a.25.25,0,0,0,.25.25,1.43,1.43,0,0,0,.73-.33,1.76,1.76,0,0,0,.58-.42.14.14,0,0,0,0-.16Z" fill="#262727"></path> <path d="M345.07,183.69c-.43,1,0,2.23.2,3.24a13.48,13.48,0,0,0,1.37,4,.31.31,0,0,0,.56-.23c-.24-1.28-.79-2.5-1.1-3.77-.25-1.06-.24-2.41-.91-3.29,0,0-.1-.06-.13,0Z" fill="#262727"></path> <path d="M346.65,173c-1,.85-1.18,2.59-1.39,3.82a11.67,11.67,0,0,0-.15,4.2c.06.28.54.3.59,0,.23-1.51.16-3,.43-4.56.2-1.13.8-2.3.61-3.44,0,0-.06,0-.08,0Z" fill="#262727"></path> <path d="M332.76,180.4a37.17,37.17,0,0,0,7.69.75c3,.18,6,.48,8.93.41.38,0,.51-.64.09-.7-2.77-.38-5.59-.42-8.38-.57s-5.6-.57-8.32-.14c-.13,0-.11.21,0,.24Z" fill="#262727"></path> <path d="M349.42,181.17h-.07a.28.28,0,0,0-.2.2,9.51,9.51,0,0,0-.26,1.58c-.06.47.72.49.76,0a8.89,8.89,0,0,0,.05-1.5.29.29,0,0,0-.2-.27Z" fill="#262727"></path> <path d="M349.3,181.41c.22.23.46.37.5.71a2.11,2.11,0,0,1-.34,1.1l.26-.2-.85.15.54.41a.62.62,0,0,0-.09-.44.19.19,0,0,0-.17-.1.72.72,0,0,0-.47.23c-.36.31,0,.78.42.71s.91,0,1.14-.42a2.89,2.89,0,0,0,.39-1.28c0-.64-.44-1.55-1.2-1.38a.3.3,0,0,0-.13.5Z" fill="#262727"></path> <path d="M349.06,181.55a8.32,8.32,0,0,0-.31,1.87.38.38,0,0,0,.74.1,8.35,8.35,0,0,0,.28-1.87.36.36,0,0,0-.71-.1Z" fill="#262727"></path> <path d="M332.29,180.43a1,1,0,0,0-.47,1.47.32.32,0,0,0,.27.16h.07a.21.21,0,0,0,.18-.1.64.64,0,0,0,0-.47,1.06,1.06,0,0,1,.15-.78.18.18,0,0,0-.2-.27Z" fill="#262727"></path> <path d="M333,182.14c4.85,1.63,11,2.05,16.06,2.25.43,0,.55-.71.1-.77-5.25-.71-10.84-1.8-16.11-1.84a.18.18,0,0,0,0,.36Z" fill="#262727"></path> <path d="M349,184.18c.56.28,1.56-.41,1.17-1a.15.15,0,0,0-.24,0c-.15.12-.24.3-.39.43a2.49,2.49,0,0,1-.54.26.23.23,0,0,0,0,.39Z" fill="#262727"></path> <path d="M299.18,180.06c3.7-7.69,10.71-12.76,19.49-12.64s15.52,4.85,21.29,11.12c.26.28.78-.1.55-.42-9.83-13.75-35.42-17.17-41.89,1.7-.11.32.41.55.56.24Z" fill="#262727"></path> <path d="M339.77,177.51a51.32,51.32,0,0,1,6.72-4.38l-.48-.06.37.34a.25.25,0,0,0,.42-.24l-.13-.47a.4.4,0,0,0-.58-.23A22.41,22.41,0,0,0,339.4,177c-.22.24.07.68.37.48Z" fill="#262727"></path> <path d="M336.66,188.21a27.2,27.2,0,0,0,6.9,2.82c1.16.37,2.68,1.14,3.49-.12a.32.32,0,0,0-.44-.44c-1.21.79-4.11-.64-5.28-1.06-1.49-.53-3-1.25-4.49-1.63a.24.24,0,0,0-.18.43Z" fill="#262727"></path> <path d="M345.21,173.35a6,6,0,0,0-1.21,3,8.53,8.53,0,0,0-.24,3.3c0,.18.3.16.35,0,.31-1.08.36-2.24.6-3.35a11.34,11.34,0,0,0,.63-2.92.08.08,0,0,0-.13-.05Z" fill="#262727"></path> <path d="M343.67,185.46a8.07,8.07,0,0,0,.49,3.23,5.61,5.61,0,0,0,1.41,2.59.2.2,0,0,0,.33-.19,19.17,19.17,0,0,0-1.15-2.77c-.33-.95-.58-1.93-.87-2.89a.1.1,0,0,0-.2,0Z" fill="#262727"></path> <path d="M298.61,180.2c3.77,15.95,30.69,20.89,39.14,6.43.14-.23-.2-.52-.39-.3-10.52,12.48-32.39,9.41-38.24-6.27a.27.27,0,0,0-.51.14Z" fill="#262727"></path> <path d="M298.89,180.33a.25.25,0,0,0,0-.5.25.25,0,0,0,0,.5Z" fill="#262727"></path> <path d="M305.62,188.49l0,0h.28l-.13.5.09,0-.29,0,.09,0-.29-.38v.13a.33.33,0,0,0,.49.28L306,189a.4.4,0,0,0-.2-.74.6.6,0,0,0-.44.18.37.37,0,0,0,.07.58l.09,0a.35.35,0,0,0,.41-.05l.05-.06a.29.29,0,0,0,0-.33l0-.06a.21.21,0,0,0-.18-.1h-.06a.13.13,0,0,0-.12.09Z" fill="#262727"></path> <path d="M318.76,191.85h0l.31.08v0l0,.28,0,0-.22.17H319l-.47-.27,0,.06.1-.38-.06,0,.4-.11h-.06l.25.61.06-.09-.25.19.1,0-.47-.62,0,.06.25-.19h.08a.42.42,0,0,0-.22.8.54.54,0,0,0,.66-.26.42.42,0,0,0-.47-.62.57.57,0,0,0-.4.32.42.42,0,0,0,.36.62h.07a.42.42,0,0,0,.39-.3.45.45,0,0,0,0-.42.38.38,0,0,0-.43-.17.49.49,0,0,0-.25.82.36.36,0,0,0,.43.06.39.39,0,0,0,.2-.35.29.29,0,0,0-.28-.28l-.13,0Z" fill="#262727"></path> <path d="M331.06,190.47l.16.06-.15.37.08-.07-.27,0-.06,0v-.36l-.05.1.41-.17-.1,0,.28.36,0,.11c.2-.26-.13-.63-.41-.54l0,0a.39.39,0,0,0-.28.37v0a.39.39,0,0,0,.28.36l.11,0a.38.38,0,0,0,.45-.26c.21-.6-.49-.85-.83-.39a.33.33,0,0,0,.05.4l.07.06a.3.3,0,0,0,.29.08l.08,0a.26.26,0,0,0,.18-.31v0a.18.18,0,0,0-.17-.13Z" fill="#262727"></path> <path d="M301,182.71c9.2,6.52,21.85,9.72,32.42,4.6.21-.1.06-.46-.16-.38-11.53,4.18-21.76,1.28-32.12-4.48a.15.15,0,0,0-.15.25Z" fill="#262727"></path> <path d="M302.11,180.75A60.14,60.14,0,0,0,326,183c.22,0,.23-.35,0-.35a122.49,122.49,0,0,1-23.79-2,.1.1,0,0,0-.05.19Z" fill="#262727"></path> <path d="M302,178.86c7.56-5.61,18.38-3.59,26.69-1.28.12,0,.21-.16.09-.21-7.55-3.52-20.12-4.29-26.92,1.32-.1.08,0,.26.14.18Z" fill="#262727"></path> <path d="M303.1,175c9.82-7.08,20.59-7,30.34.12.18.13.39-.15.23-.3a22.72,22.72,0,0,0-30.7,0c-.08.08,0,.23.12.16Z" fill="#262727"></path> <path d="M315.81,211.63a14.19,14.19,0,0,0-3.38-6.12c-.7-.81-2.27-2.72-3.49-1.57-2.6,2.47,5.37,7.39,7.09,7.79a.14.14,0,0,0,.13-.23,16.93,16.93,0,0,0-3.09-2.16,17.19,17.19,0,0,1-2-1.63c-.24-.22-.47-.46-.69-.7-.73-.8-1-.85-.38-1.93s.57-.85,1.3-.15c.24.23.45.48.67.73a18.25,18.25,0,0,1,1.6,2.13c.81,1.26,1.32,2.64,2,4,.09.16.32,0,.28-.12Z" fill="#262727"></path> <path d="M315.87,211.75c.8-1.36,1.25-2.89,2.06-4.26a10.67,10.67,0,0,1,1.53-2,5,5,0,0,1,1.13-1c.73-.37,2.07-.41,1.72.68-.9,2.83-4.28,4.74-6.57,6.27a.26.26,0,0,0,.26.45,16.52,16.52,0,0,0,5.52-4.3c.71-.86,2.41-2.82,1.4-4s-3.16.52-4,1.33a13.81,13.81,0,0,0-3.48,6.62.21.21,0,0,0,.39.16Z" fill="#262727"></path> <path d="M305.36,188.8c3.22,7.78,7,15.34,10.34,23.08.14.33.62,0,.48-.28-3.27-7.7-6.46-15.6-10.45-23-.11-.19-.45-.06-.36.15Z" fill="#262727"></path> <path d="M318.71,192a85,85,0,0,0-1.92,10.64,80.62,80.62,0,0,0-1.27,8.76c0,.15.21.17.25,0,1-3.14,1.29-6.61,1.8-9.88s1.15-6.33,1.39-9.52c0-.14-.21-.17-.25,0Z" fill="#262727"></path> <path d="M316,211.34l-.1,0c-.54-.24-.8.62-.29.69l.11,0c.37.06.69-.48.28-.67Z" fill="#262727"></path> <path d="M330.79,190.53c-5.26,6.76-10.52,13.81-15.09,21-.09.15.13.33.25.19,5.37-6.67,10.43-13.86,15.13-21,.11-.17-.15-.38-.28-.22Z" fill="#262727"></path> <path d="M322.37,194.66C320,200.15,318,205.83,316,211.48c-.09.27.33.38.42.12,2-5.64,4.16-11.21,6.22-16.82.06-.16-.21-.27-.28-.12Z" fill="#262727"></path> <path d="M313.06,193.62c.94,5.94,1.7,11.89,2.15,17.89,0,.27.44.27.42,0-.47-6-1.16-12-2.21-18,0-.24-.41-.14-.37.1Z" fill="#262727"></path> <path d="M316.42,211.8a1.06,1.06,0,0,0-1.34,0,.18.18,0,0,0,0,.25,1.06,1.06,0,0,0,1.34-.08.12.12,0,0,0,0-.17Z" fill="#262727"></path> <path d="M297,211.77a153.19,153.19,0,0,0-1.32,17.38c0,.41.58.39.62,0a173.09,173.09,0,0,0,1.18-17.37c0-.32-.45-.3-.48,0Z" fill="#262727"></path> <path d="M308.08,211.36c-.88,6.28-1.54,12.73-1.92,19.06,0,.29.47.36.51.07.88-6.28,1.52-12.73,1.9-19.06,0-.28-.45-.35-.49-.07Z" fill="#262727"></path> <path d="M331.31,213.23c-.82,6.33-1.43,12.69-2.13,19,0,.37.54.36.58,0,.7-6.34,1.48-12.68,2.06-19,0-.33-.46-.31-.5,0Z" fill="#262727"></path> <path d="M295.75,229.14a19.28,19.28,0,0,0,5.19,1.43,37.5,37.5,0,0,0,5.37.82.24.24,0,0,0,.07-.48c-1.87-.39-3.78-.59-5.65-1a32.71,32.71,0,0,0-4.91-1,.1.1,0,0,0-.05.19Z" fill="#262727"></path> <path d="M306.38,231.2c7.5,1.32,15.46,1.19,23.05,1.67.46,0,.45-.68,0-.71-7.57-.47-15.44-1.6-23-1.23-.14,0-.19.24,0,.26Z" fill="#262727"></path> <path d="M297,211.8a18.11,18.11,0,0,0,5.55.28,35.67,35.67,0,0,0,5.58-.45c.27-.05.21-.48-.07-.48-2,0-4,.27-5.94.32a28.56,28.56,0,0,0-5.12.2.07.07,0,0,0,0,.13Z" fill="#262727"></path> <path d="M307.8,211.67a125.85,125.85,0,0,0,23.34,1.63.25.25,0,0,0,0-.5c-7.73-.57-15.55-1.15-23.29-1.49-.2,0-.26.33,0,.36Z" fill="#262727"></path> <path d="M315.75,212.09c-1,6.31-1.22,13-1.56,19.34,0,.36.52.35.55,0,.59-6.35,1.39-12.93,1.27-19.3,0-.14-.23-.19-.26,0Z" fill="#262727"></path> <path d="M314.93,212.38c-1,6.25-1.11,12.73-1.59,19,0,.39.58.39.61,0,.44-6.29,1.27-12.7,1.21-19,0-.13-.21-.17-.23,0Z" fill="#262727"></path> <path d="M297.17,212.06a18.36,18.36,0,0,0,1.83,5c.92,2.11,1.89,4.21,2.94,6.26.15.3.59,0,.45-.26-.87-1.84-1.75-3.68-2.58-5.54s-1.35-3.92-2.54-5.53c0,0-.11,0-.1,0Z" fill="#262727"></path> <path d="M302.15,223.27a25.57,25.57,0,0,0,2.88-4.79c1-1.86,2.06-3.71,3.14-5.54.2-.33-.34-.64-.51-.3-1,1.88-2,3.74-3.05,5.59a25.63,25.63,0,0,0-2.55,5,.06.06,0,0,0,.1.06Z" fill="#262727"></path> <path d="M303.48,220.29a9.7,9.7,0,0,0,1.45,2.05c.63.82,1.27,1.63,1.91,2.44.23.29.64-.12.41-.41-.6-.77-1.2-1.54-1.81-2.3a10.1,10.1,0,0,0-1.71-2c-.11-.08-.31.06-.25.19Z" fill="#262727"></path> <path d="M300.44,219.94a19.15,19.15,0,0,0-2.3,3.08,12.52,12.52,0,0,0-2.1,3.19.12.12,0,0,0,.18.14,10.32,10.32,0,0,0,2.27-2.85,16.08,16.08,0,0,0,2.15-3.44c0-.12-.12-.19-.2-.11Z" fill="#262727"></path> <path d="M316.64,220.73a20.73,20.73,0,0,0,0,3.09.3.3,0,0,0,.58.08.48.48,0,0,0,0-.39.2.2,0,0,0-.29-.12.46.46,0,0,0-.25.28l.55.15a20.71,20.71,0,0,0-.16-3.09c0-.2-.38-.21-.41,0Z" fill="#262727"></path> <path d="M317.1,221.21c.39-.35,1-.11.72.48-.21.41-.68.35-1.05.49-.11,0-.18.24,0,.3a1.17,1.17,0,0,0,1.54-1.35c-.2-.59-1.39-.77-1.33,0a.1.1,0,0,0,.16.07Z" fill="#262727"></path> <path d="M318.16,223.92a1.46,1.46,0,0,0,.21-.52c.06-.2.15-.66.32-.77.34-.23.26.38.27.57a2.69,2.69,0,0,0,.09.59.17.17,0,0,0,.33,0,3.62,3.62,0,0,0-.15-1.32.42.42,0,0,0-.49-.33c-.53.12-.89,1.37-.78,1.8a.11.11,0,0,0,.2,0Z" fill="#262727"></path> <path d="M319.21,223.05a1.25,1.25,0,0,0-1.17,0,.15.15,0,0,0,0,.26,1.24,1.24,0,0,0,1.17-.1.1.1,0,0,0,0-.16Z" fill="#262727"></path> <path d="M319.91,222.4c.1,0,.11,0,.16-.13l-.2-.16c-.2.21-.17.41-.19.7s-.07.49.15.7a.14.14,0,0,0,.19,0c.23-.2.18-.41.18-.7s0-.48-.16-.7a.13.13,0,0,0-.22.13v.06s0,.12.08.1Z" fill="#262727"></path> <path d="M320,223a2.37,2.37,0,0,1,.76-.22.56.56,0,0,0,.41-.13.16.16,0,0,0,0-.19c-.31-.53-1.14-.11-1.38.29-.07.12,0,.31.19.25Z" fill="#262727"></path> <path d="M316.32,228.35a14.31,14.31,0,0,1,.83-2.89l-.43-.06a10,10,0,0,1,.42,1.37c.11.47.12,1,.25,1.41a.21.21,0,0,0,.41-.06,6.64,6.64,0,0,0-.62-2.85c-.07-.17-.34-.26-.43-.06a5.64,5.64,0,0,0-.58,3.14.09.09,0,0,0,.16,0Z" fill="#262727"></path> <path d="M317.4,227.06a.77.77,0,0,0-1,.13.13.13,0,0,0,0,.15.78.78,0,0,0,1-.12.1.1,0,0,0,0-.15Z" fill="#262727"></path> <path d="M318.06,226.37c-.29.46.19,1.27.45,1.66a.23.23,0,0,0,.39,0,6.77,6.77,0,0,0,.67-1.41c0-.18-.2-.35-.33-.19a6.74,6.74,0,0,0-.73,1.37h.39a2.93,2.93,0,0,1-.47-.88c-.07-.22-.07-.4-.23-.57a.09.09,0,0,0-.14,0Z" fill="#262727"></path> <path d="M320.18,226.26c-.39.23-.23,1.08-.24,1.47l.26-.26.07,0a.23.23,0,0,0-.34.14v0c-.07.16.1.32.25.33h0a.26.26,0,0,0,.26-.26c0-.39.18-1.23-.2-1.47a.07.07,0,0,0-.07,0Z" fill="#262727"></path> <path d="M320,225.58l.1.08a.18.18,0,0,0,.29-.17l0-.13c-.08-.37-.64,0-.36.21Z" fill="#262727"></path> <path d="M321.13,226.52c-.33.35-.55,1-.12,1.39s1,0,1.21-.45a1,1,0,0,0-.37-1.34.63.63,0,0,0-.87.74c.06.18.36.22.4,0s.37-.41.51,0c.07.18-.11.74-.35.77-.42.06-.52-.28-.43-.61,0-.14.1-.27.14-.4a.08.08,0,0,0-.13-.08Z" fill="#262727"></path> <path d="M322.94,226.42h-.06a.23.23,0,0,0-.17.17,8.58,8.58,0,0,0-.13,1.34l.53-.07a.48.48,0,0,0-.18-.27.16.16,0,0,0-.19,0,.42.42,0,0,0-.15.24c-.12.36.5.49.53.07a8.12,8.12,0,0,0,0-1.28.25.25,0,0,0-.17-.23Z" fill="#262727"></path> <path d="M322.87,227.24c.25,0,.37-.24.57-.35a.47.47,0,0,1,.69.41,1.9,1.9,0,0,1-.22.74c-.11.27.4.41.43.06V228a.14.14,0,0,0-.14-.14h-.09l.19.33c.27-.63.48-1.83-.54-1.9a1,1,0,0,0-.9.49c0,.06-.2.43,0,.44Z" fill="#262727"></path> <path d="M310.07,214.39a3.2,3.2,0,0,0-.13,1.64l.36-.2-.1-.05a.17.17,0,0,0-.25.14V216c0,.31.45.3.48,0a3.19,3.19,0,0,0-.11-1.64.14.14,0,0,0-.23,0Z" fill="#262727"></path> <path d="M311,214.25a3.46,3.46,0,0,0-1.78,0c-.26.07-.17.41.06.44a3.47,3.47,0,0,0,1.74-.27c.06,0,0-.11,0-.12Z" fill="#262727"></path> <path d="M310.8,215.45c-.15.36-.26,1,.27,1.1s.78-.38.83-.74a.71.71,0,0,0-.67-.82.53.53,0,0,0-.46.8.2.2,0,0,0,.36,0q.56.5-.2-.27a.07.07,0,0,0-.13,0Z" fill="#262727"></path> <path d="M312.39,215.61a.24.24,0,0,0,0-.49.24.24,0,0,0,0,.49Z" fill="#262727"></path> <path d="M312.21,216.39l0,.07v-.27l.06,0,.27.07v0a.18.18,0,0,0-.13-.17l0,0a.24.24,0,0,0-.27.11l0,.06a.28.28,0,0,0,0,.33l0,.05a.27.27,0,0,0,.27.07.36.36,0,0,0,.21-.55.26.26,0,0,0-.44.26Z" fill="#262727"></path> <path d="M311.33,217.74a2.51,2.51,0,0,0-1.07-.27,1.29,1.29,0,0,0-.8,0,.12.12,0,0,0,0,.18,1.28,1.28,0,0,0,.77.23,2.53,2.53,0,0,0,1.1,0,.09.09,0,0,0,0-.17Z" fill="#262727"></path> <path d="M312.57,219a4.9,4.9,0,0,0-3.1-.31.16.16,0,0,0,0,.31,6,6,0,0,0,1.45.05c.54,0,1.09,0,1.63.05.07,0,.07-.09,0-.11Z" fill="#262727"></path> <path d="M312.42,219.73a5.94,5.94,0,0,0-1.63-.3,2.64,2.64,0,0,0-1.45.15.14.14,0,0,0,0,.24,3.42,3.42,0,0,0,1.33.14c.57,0,1.14,0,1.71,0a.13.13,0,0,0,0-.25Z" fill="#262727"></path> <path d="M312.26,220.71a2.74,2.74,0,0,0-1.32-.23,3.73,3.73,0,0,0-1.52.06c-.14.05-.21.27,0,.35a3.58,3.58,0,0,0,1.46.17,2.87,2.87,0,0,0,1.42-.15.12.12,0,0,0,0-.2Z" fill="#262727"></path> <path d="M310.63,221.75c-.23-.39-.84-.23-1,.13a.19.19,0,0,0,.16.28,1.1,1.1,0,0,0,.85-.29.1.1,0,0,0,0-.12Z" fill="#262727"></path> <path d="M170.6,47.38c4.7-1.16,9.75-3,13.67,1.15a6,6,0,0,1,.87,7.07c-1.93,3.21-6,2.17-8.89,1.3-.59-.18-.82.71-.25.91,2.86,1,6.42,1.9,8.93-.38a6.7,6.7,0,0,0,1.7-6.78c-2-6.59-11.32-7-16.15-3.56a.16.16,0,0,0,.12.29Z" fill="#262727"></path> <path d="M161.83,61.2c1.12,3.62,6.1,5.19,9.52,4.57,3.62-.65,7.31-3.82,7.58-7.64a.39.39,0,0,0-.72-.19c-1.65,3.39-3.65,6.5-7.83,6.8C166.79,65,164.72,63,162,61c-.1-.07-.24,0-.2.15Z" fill="#262727"></path> <path d="M146.58,62c-1.57,3.36,1.65,6.33,4.89,6.53,4.07.25,9.76-2.83,10.95-6.89.18-.6-.72-.83-.93-.26-1.91,5.34-15.7,9.69-14.29.87.05-.34-.44-.63-.61-.26Z" fill="#262727"></path> <path d="M137.55,54.38c-4.38-3-9,3.13-6.13,7.1,3.16,4.36,11.63,3.45,15.3.38a.38.38,0,0,0-.37-.63c-3,1.11-5.54,2.26-8.83,2-1.91-.17-4.38-.82-5.45-2.58a3.72,3.72,0,0,1,1.13-5.08c1.5-1.12,2.35-1.1,4.2-.81a.2.2,0,0,0,.15-.36Z" fill="#262727"></path> <path d="M137.82,54.31c-.05-1.12-.79-2-.8-3.21a4.86,4.86,0,0,1,2.16-4.18,4.81,4.81,0,0,1,4-.34c1.32.44,1.9,1.45,3,2.21a.33.33,0,0,0,.5-.29c-.16-1.56-2-2.62-3.37-3a5.8,5.8,0,0,0-4.8.64,5.69,5.69,0,0,0-2.37,4.1c-.15,1.31.06,3.74,1.57,4.2a.12.12,0,0,0,.15-.11Z" fill="#262727"></path> <path d="M146,48a2.25,2.25,0,0,0,1.2-.47,5.32,5.32,0,0,1,2.83-.73c2,.08,2.83,1.49,4.24,2.56.24.18.48-.12.45-.35-.27-1.88-2.74-3.06-4.45-3.2-1.37-.11-4.19.38-4.37,2.08A.1.1,0,0,0,146,48Z" fill="#262727"></path> <path d="M154.9,49.08c1.49-2.89,2.8-5.64,6.26-6.56,4.07-1.08,7,1.31,9.32,4.32.23.3.81.15.67-.28-1.19-3.66-5.63-5.84-9.32-5.31s-7.55,3.89-7.21,7.76c0,.14.21.22.29.08Z" fill="#262727"></path> <path d="M43.55,22.48c1.31-.18,2.43-.81,3.79-.82s2.47.61,3.77.91a.39.39,0,0,0,.38-.65c-1.65-2-6.75-2.08-8.16.28-.1.16.06.31.22.29Z" fill="#262727"></path> <path d="M49.52,21.72c1.63-2.66,3-4.69,6.34-5.28,3-.54,5.8.49,8.6,1.44.53.18.89-.67.38-.91-3.3-1.56-7.37-2.59-10.92-1.24-2.35.9-5.06,3.13-4.74,5.89a.19.19,0,0,0,.35.09Z" fill="#262727"></path> <path d="M63.93,16.51C61,9.66,63.9,1.71,72.14,1.13,79.23.62,83.76,6.35,85,12.71c.1.52,1,.42.95-.13-.8-8-8.15-14.29-16.26-12.17-6.76,1.77-11.16,10.64-6.19,16.41.21.25.52-.07.42-.32Z" fill="#262727"></path> <path d="M85.62,10.32C89.28,8,92.3,5.64,97,6.62c4.5.94,6.94,4.22,8.76,8.1.17.37.7.1.63-.26-1.81-8.64-16.29-13.23-20.94-4.32-.05.11.06.25.17.17Z" fill="#262727"></path> <path d="M105.72,12.71c6.66-1.95,12.42-4.1,19.56-3.3,7.39.82,19.3,5.15,15.43,14.86-.17.42.54.72.74.31,3.32-6.73-2.66-12.28-8.61-14.43-8.21-3-19.93-3-27.21,2.35-.1.08,0,.26.09.22Z" fill="#262727"></path> <path d="M113.19,37c8.58,3.23,22.25,3,30-2.54,4.31-3.07,5.39-11.63-1.76-11.16-.61,0-.62,1,0,1l4.32,5.28-1.88,3.14a14.25,14.25,0,0,1-5.49,3,39.53,39.53,0,0,1-8.25,1.87c-5.76.72-11.1-.11-16.78-1a.23.23,0,0,0-.13.45Z" fill="#262727"></path> <path d="M28.28,38.29c-9,1-20.44,2.16-25.68-7.3C-.08,26.13.78,19.38,5.81,16.38S17,15.33,21.53,18.48c.56.38,1.08-.52.53-.9-4.54-3.14-10.13-5.11-15.5-2.77A11.09,11.09,0,0,0,.05,26.28C1.23,39.63,18.13,42.06,28.35,38.8c.26-.08.23-.54-.07-.51Z" fill="#262727"></path> <path d="M18.28,16.41a9.73,9.73,0,0,0,.66-1.47,3.44,3.44,0,0,1,1.78-1.63,3.35,3.35,0,0,1,2.21-.07c.6.19,1,.62,1.63.81.26.08.6-.2.48-.48-.67-1.66-3.29-1.89-4.75-1.28S17,14.88,17.93,16.41a.2.2,0,0,0,.35,0Z" fill="#262727"></path> <path d="M24.26,14.17C33.22,10.23,40,13,43.78,21.8a.38.38,0,0,0,.69-.19c-1-9.19-13.69-14.09-20.57-7.9-.27.24.07.59.36.46Z" fill="#262727"></path> <path d="M27.35,39C27,47.47,44.9,51.5,46.83,42.28c.08-.38-.49-.69-.68-.29-3.62,8.09-16.22,4.21-18.39-3a.21.21,0,0,0-.41.06Z" fill="#262727"></path> <path d="M46.06,42.68c3.88,4.22,9.84,7.56,15.68,5.58,4-1.36,7.42-6.1,5.39-10.25a.3.3,0,0,0-.56.15c.29,5.42-2.66,9.64-8.55,9.61-4.57,0-8.13-2.79-11.39-5.65a.4.4,0,0,0-.57.56Z" fill="#262727"></path> <path d="M66.89,38.43c.85,1.48,3.26,1.74,4.81,1.68A8.33,8.33,0,0,0,77,37.92c.49-.44-.24-1.17-.73-.73a7.44,7.44,0,0,1-5.06,1.91c-1.5,0-2.71-.83-4.14-.94a.18.18,0,0,0-.15.27Z" fill="#262727"></path> <path d="M75.93,37.46C77,42.3,82.06,46.11,86.77,47.1c4.36.91,10-.74,10.71-5.7.05-.33-.42-.61-.59-.25-2.59,5.38-8.3,6.37-13.35,3.74-3.38-1.76-5.15-4.53-7.29-7.55a.18.18,0,0,0-.32.13Z" fill="#262727"></path> <path d="M97.08,41.38c5.09,5.82,19.48,5.33,17.44-4.92-.12-.61-1.06-.35-.93.26.94,4.76-3.26,7.83-7.58,7.7-3.34-.11-5.77-2.09-8.69-3.34a.2.2,0,0,0-.24.31Z" fill="#262727"></path> <path d="M330.35,56.77c-4.57-6.44-13.68-2-14.35,5-.78,8.24,8.1,14.54,15.6,11.14.52-.23.14-1-.37-.89-6.48,1.59-13.9-1.41-14.15-9-.23-7.06,7.74-11.14,12.9-6,.18.17.51-.06.36-.28Z" fill="#262727"></path> <path d="M330.77,73.2c1,6.28,9.84,6.93,13.36,2.57.39-.48-.24-1.15-.69-.69a7.24,7.24,0,0,1-6.63,2.45c-2.74-.51-4.08-2.37-5.49-4.56a.3.3,0,0,0-.55.23Z" fill="#262727"></path> <path d="M343.33,75.4c-.22,4.86,7.58,7.91,11.48,8.49,4.16.62,9-1.29,9.8-5.84a.47.47,0,0,0-.91-.25c-3.23,9.37-16.79,4.11-20.07-2.48-.08-.15-.29-.07-.3.08Z" fill="#262727"></path> <path d="M364.47,77.68c0,1.54,2.65,1.71,3.7,1.39,1.21-.38,3-2,2.34-3.37a.26.26,0,0,0-.41-.05,5.07,5.07,0,0,0-.6,1.13,2.88,2.88,0,0,1-1.73,1.41,3.09,3.09,0,0,1-2-.19,3.3,3.3,0,0,0-1.18-.44.13.13,0,0,0-.12.12Z" fill="#262727"></path> <path d="M370.24,75.63c3.54,4,12.79,7.39,16.13,1.3a.37.37,0,0,0-.59-.45c-5.21,5.44-10,1.33-15.3-1.17a.2.2,0,0,0-.24.32Z" fill="#262727"></path> <path d="M385.81,77.44c7.62,4,22.36,5.44,24.59-5.94,1.87-9.55-8.33-14.73-16.34-12.67a.54.54,0,0,0,.29,1c4.25-1.09,9.07-.64,12.29,2.66a9.54,9.54,0,0,1,1.27,12c-5.11,7.6-14.81,4.7-21.83,2.2-.38-.13-.62.46-.27.65Z" fill="#262727"></path> <path d="M371.84,47.41c3.86-1.61,7.46-2.72,11.56-1.06,4.57,1.86,7.1,6.2,7.41,11,0,.6,1,.61.94,0-.22-9.44-12.16-17.58-20.12-10.32-.16.14,0,.46.22.37Z" fill="#262727"></path> <path d="M391.51,57.58a2.37,2.37,0,0,1,1.71.35c.5.42.33,1,.65,1.51a.3.3,0,0,0,.47.06c.68-.63,0-1.84-.61-2.29a2.15,2.15,0,0,0-1.17-.44,1.46,1.46,0,0,0-1.18.49c-.11.1,0,.35.13.32Z" fill="#262727"></path> <path d="M359,52c.34-3.39,2.06-6.75,5.55-7.76,3.18-.92,5.57.6,8,2.37.31.22.67-.2.5-.5-1.8-3.07-6.49-3.89-9.61-2.6a8,8,0,0,0-4.87,8.54c0,.24.37.15.39-.05Z" fill="#262727"></path> <path d="M345.91,47.76c2.48-1,4.59-2.17,7.37-1.35s4.12,2.81,5.27,5.19c.19.4.79.11.7-.29-1.27-5.37-9.8-8.75-13.55-3.82a.19.19,0,0,0,.21.28Z" fill="#262727"></path> <path d="M330.34,55.77c-2.5-5.57-2-12.87,4.65-15.23a7.83,7.83,0,0,1,7.95,1.51c1.61,1.44,2,3.22,2.81,5.08a.25.25,0,0,0,.46-.06c1.12-6.11-7.31-9.22-11.93-7.35-6.44,2.62-8.28,10.8-4.46,16.35a.3.3,0,0,0,.52-.3Z" fill="#262727"></path> <path d="M332.33,184.31h0a.28.28,0,0,0-.26.2,9,9,0,0,0-.4,1.33c-.08.36-.22.69,0,1a.23.23,0,0,0,.31.08c.34-.24.36-.62.45-1a9.27,9.27,0,0,0,.21-1.36.27.27,0,0,0-.14-.24.23.23,0,0,0-.1,0Z" fill="#262727"></path> <path d="M330.47,185.17a3.12,3.12,0,0,0-.68,2,.19.19,0,0,0,.28.11,3.09,3.09,0,0,0,.88-1.91.27.27,0,0,0-.49-.2Z" fill="#262727"></path> <path d="M327.2,187a3.13,3.13,0,0,0-.5,1,.23.23,0,0,0,.38.22,3.15,3.15,0,0,0,.65-.91.31.31,0,0,0-.53-.31Z" fill="#262727"></path> <path d="M303.32,179.21c.21.59.65,1.16,1.35,1a.17.17,0,0,0,.08-.29c-.34-.3-.76-.5-1-.92-.13-.24-.53-.07-.44.19Z" fill="#262727"></path> <path d="M305,179a2.29,2.29,0,0,0,.58,1.21c.23.23.62.54,1,.33a.15.15,0,0,0,.07-.13c0-.28-.25-.41-.44-.59a2.61,2.61,0,0,1-.72-1,.23.23,0,0,0-.44.12Z" fill="#262727"></path> <path d="M307.15,180.16c.21.29.33.53.69.61a.19.19,0,0,0,.24-.24c-.08-.37-.32-.49-.61-.7s-.46.14-.33.32Z" fill="#262727"></path> </svg> 